<svg xmlns="http://www.w3.org/2000/svg" width="137" height="99.544" viewBox="0 0 137 99.544">
  <defs>
    <style>
      .cls-1 {
        fill: #f2f2f2;
      }

      .cls-2 {
        fill: #2f2e41;
      }

      .cls-3 {
        fill: #ffb9b9;
      }

      .cls-4 {
        opacity: 0.1;
      }

      .cls-5 {
        fill: #575a89;
      }

      .cls-6, .cls-8 {
        opacity: 0.2;
      }

      .cls-7 {
        fill: #6c63ff;
      }

      .cls-8, .cls-9 {
        fill: none;
        stroke-miterlimit: 10;
        stroke-width: 2px;
      }

      .cls-8 {
        stroke: #000;
      }

      .cls-9 {
        stroke: #3f3d56;
      }

      .cls-10 {
        fill: #3f3d56;
      }

      .cls-11 {
        fill: #9f616a;
      }

      .cls-12 {
        fill: #d0cde1;
      }

      .cls-13 {
        fill: #57b894;
      }
    </style>
  </defs>
  <g id="Collect_rent_online" data-name="Collect rent online" transform="translate(0 0.136)">
    <circle id="Ellipse_11" data-name="Ellipse 11" class="cls-1" cx="46.5" cy="46.5" r="46.5" transform="translate(12 -0.136)"/>
    <ellipse id="Ellipse_12" data-name="Ellipse 12" class="cls-1" cx="18.449" cy="2.952" rx="18.449" ry="2.952" transform="translate(0 93.504)"/>
    <ellipse id="Ellipse_13" data-name="Ellipse 13" class="cls-1" cx="28.547" cy="4.567" rx="28.547" ry="4.567" transform="translate(79.906 87.272)"/>
    <path id="Path_69" data-name="Path 69" class="cls-2" d="M853.124,435.945s.243.81-1.134,1.539-1.782,3.484-.162,4.294,2.106,1.863,1.3,2.592-2.268,2.673-.324,3.159,2.187,1.458,1.62,1.863,1.3-.729,1.3-.729.324,1.944,2.025,1.458,6.481-9.722,4.051-11.018A70.051,70.051,0,0,0,853.124,435.945Z" transform="translate(-751.014 -388.008)"/>
    <path id="Path_70" data-name="Path 70" class="cls-3" d="M871.047,490.524s.84,2.941-.63,3.151a5.74,5.74,0,0,0-2.521,1.05l2.731,3.571h5.042l3.151-3.151s-4.2-3.151-3.361-5.042S871.047,490.524,871.047,490.524Z" transform="translate(-766 -434.764)"/>
    <path id="Path_71" data-name="Path 71" class="cls-4" d="M871.047,490.524s.84,2.941-.63,3.151a5.74,5.74,0,0,0-2.521,1.05l2.731,3.571h5.042l3.151-3.151s-4.2-3.151-3.361-5.042S871.047,490.524,871.047,490.524Z" transform="translate(-766 -434.764)"/>
    <path id="Path_72" data-name="Path 72" class="cls-3" d="M852.787,719l4.832,1.681,3.361.21-.21-2.941-6.933-2.05Z" transform="translate(-746.48 -626.69)"/>
    <path id="Path_73" data-name="Path 73" class="cls-5" d="M953,767.286s0,2.941.42,2.941,6.093-.63,7.773,0,4.2-1.681,2.941-2.941-3.317-3.151-4.6-2.731S953,766.025,953,766.025Z" transform="translate(-840.498 -675.601)"/>
    <path id="Path_74" data-name="Path 74" class="cls-5" d="M819.176,764.974s-2.521,5.042-.84,5.462a5.828,5.828,0,0,0,3.782-.42c.21-.21,3.151-1.05,3.572-.63s.42-1.681.42-1.681Z" transform="translate(-722.113 -676.021)"/>
    <path id="Path_75" data-name="Path 75" class="cls-2" d="M831.019,709.359s-3.992,5.462-1.05,6.933,17.017,1.471,18.068,0,1.471-6.093,0-6.513S831.019,709.359,831.019,709.359Z" transform="translate(-731.854 -627.338)"/>
    <path id="Path_76" data-name="Path 76" class="cls-6" d="M831.019,709.359s-3.992,5.462-1.05,6.933,17.017,1.471,18.068,0,1.471-6.093,0-6.513S831.019,709.359,831.019,709.359Z" transform="translate(-731.854 -627.338)"/>
    <circle id="Ellipse_14" data-name="Ellipse 14" class="cls-3" cx="4.832" cy="4.832" r="4.832" transform="translate(101.895 47.566)"/>
    <path id="Path_77" data-name="Path 77" class="cls-7" d="M845.987,526.5l4.2-.84s1.05,3.361,4.412,2.731,4.2-2.731,4.2-2.731,2.521,1.05,2.731,1.05,2.941,1.05,2.941,1.681-3.151,6.933-3.151,6.933l.42,11.345-15.547-.42,1.05-11.135Z" transform="translate(-746.823 -466.541)"/>
    <path id="Path_78" data-name="Path 78" class="cls-3" d="M822.469,576.22s-1.261,11.135-.42,11.975,4.2,3.151,4.2,3.151v-2.521l-1.681-3.151,1.681-7.353Z" transform="translate(-725.616 -510.796)"/>
    <path id="Path_79" data-name="Path 79" class="cls-3" d="M971.638,573.692s-.735,11.45-.735,11.87a4.752,4.752,0,0,1-2.521,1.891c-.63,0-1.05-1.05-1.05-1.05l1.471-1.681-1.05-8.614Z" transform="translate(-853.04 -508.584)"/>
    <path id="Path_80" data-name="Path 80" class="cls-2" d="M917.271,686.227s9.454-5.252,9.664,0-4.832,7.353-4.832,7.353-13.025,3.906-13.551,2.478-1.576-3.739-.735-3.949,1.891-.63,2.311-.21,5.672-3.151,5.672-3.151Z" transform="translate(-800.67 -605.047)"/>
    <path id="Path_81" data-name="Path 81" class="cls-8" d="M979.954,697.562a11.95,11.95,0,0,0-2.521,1.471,16.284,16.284,0,0,1-3.361,1.681" transform="translate(-858.94 -617.012)"/>
    <path id="Path_82" data-name="Path 82" class="cls-7" d="M823.091,532.823l-1.26-.42s-4.622,4.832-3.151,6.093,2.311,1.681,2.731,2.1a7.263,7.263,0,0,0,2.521.63Z" transform="translate(-722.666 -472.441)"/>
    <path id="Path_83" data-name="Path 83" class="cls-7" d="M958.472,544.2l1.891.42a30.839,30.839,0,0,0,1.891,3.571c.42.42-.63.21-1.26,1.05s-1.261,2.311-2.521,2.311-2.941-2.1-2.941-2.1Z" transform="translate(-842.711 -482.768)"/>
    <path id="Path_84" data-name="Path 84" class="cls-2" d="M771.725,696.575s-7.983-5.672-10.714-1.471,11.765,9.874,13.866,10.714,3.992,1.681,3.992,1.681,1.891-4.622,1.891-5.462-1.471-.84-1.891-.84-2.311-.42-2.731-1.05A47.227,47.227,0,0,0,771.725,696.575Z" transform="translate(-672.141 -613.504)"/>
    <path id="Path_85" data-name="Path 85" class="cls-8" d="M813.966,705.988a12.158,12.158,0,0,0,3.992,2.1,3.905,3.905,0,0,1,2.521,1.471" transform="translate(-718.793 -624.388)"/>
    <path id="Path_86" data-name="Path 86" class="cls-5" d="M837.731,634.655l.168,8.9a1.114,1.114,0,0,0,1.126,1.092l16.553-.186a1.114,1.114,0,0,0,1.1-1.049l.5-8.709a1.114,1.114,0,0,0-1.112-1.178H838.844a1.114,1.114,0,0,0-1.113,1.135Z" transform="translate(-739.595 -560.954)"/>
    <path id="Path_87" data-name="Path 87" class="cls-2" d="M890.454,423.04s.269.9-1.256,1.705-1.974,3.859-.179,4.757,2.333,2.064,1.436,2.872-2.513,2.962-.359,3.5,2.423,1.615,1.795,2.064,1.436-.808,1.436-.808.359,2.154,2.244,1.615,3.765-10.327,1.664-12.848C895.28,423.554,890.454,423.04,890.454,423.04Z" transform="translate(-783.468 -376.712)"/>
    <path id="Path_88" data-name="Path 88" class="cls-2" d="M904.13,411.325c0-1.315,3.934-.37,5.621,1.466,1.168,1.271,2.942,3.184,1.455,4.532s2.548,3.116,3.63,3.651,3.218,2.174,1.289,3.274-1.9,2.209-1.172,2.472-1.6-.391-1.6-.391.235,2.171-1.725,2.161-7.583-10.782-6.24-13.776C906.637,411.929,904.13,411.325,904.13,411.325Z" transform="translate(-797.718 -365.92)"/>
    <path id="Path_89" data-name="Path 89" class="cls-2" d="M870.32,413.191c-5.26-.317-5.788,3.643-5.788,3.643.036,2.291,3.675,1.175,4.686,1.517,1.219-.877,3.57-2.537,5.251-3.721a7.95,7.95,0,0,0-4.148-1.438Z" transform="translate(-763.056 -368.075)"/>
    <path id="Path_90" data-name="Path 90" class="cls-9" d="M658.422,348.077s-4.719-22.114-34.253-38.157" transform="translate(-552.656 -277.693)"/>
    <path id="Path_91" data-name="Path 91" class="cls-10" d="M573.215,254.891l.059.242-1.195.29.376,1.17-.238.076-.458-1.426Z" transform="translate(-500.485 -223.146)"/>
    <path id="Path_92" data-name="Path 92" class="cls-7" d="M66.743,752.583c0,2.8-1.665,3.779-3.719,3.779l-.143,0c-.1,0-.189-.007-.283-.013-1.854-.131-3.294-1.159-3.294-3.764,0-2.7,3.445-6.1,3.7-6.349h0l.015-.015S66.743,749.782,66.743,752.583Z" transform="translate(-58.208 -659.604)"/>
    <path id="Path_93" data-name="Path 93" class="cls-10" d="M77.556,755.934l1.36-1.9-1.364,2.109,0,.218c-.1,0-.189-.007-.283-.013l.147-2.8v-.022l0,0,.014-.265-1.367-2.115,1.371,1.916,0,.056L77.546,751l-1.17-2.185,1.185,1.813.115-4.39v0l-.019,3.461,1.165-1.372-1.17,1.67-.031,1.9,1.088-1.819-1.092,2.1-.017,1.054,1.579-2.532-1.585,2.9Z" transform="translate(-72.875 -659.604)"/>
    <path id="Path_94" data-name="Path 94" class="cls-2" d="M210.561,787.3l.8-.591s.527,2.942-.061,3.382-2.791,1.175-2.791,2.057-4.995,2.057-5.142.734a2.913,2.913,0,0,1,.441-2.057s2.35-2.351,2.644-2.791,1.028-1.322,1.028-1.322Z" transform="translate(-184.287 -695.046)"/>
    <path id="Path_95" data-name="Path 95" class="cls-2" d="M167,486.667s.022.129.06.366c.035.21.084.507.143.873.617,3.765,2.417,14.849,2.295,15.215-.147.441-1.175,2.057,0,2.5a.911.911,0,0,1,.366.4,8.541,8.541,0,0,1,.621,1.466,64.42,64.42,0,0,1,1.883,7.541c.19.99.319,1.786.357,2.2a1.2,1.2,0,0,1,0,.291c-.147.588.881,2.644,1.322,3.232s1.175,1.175,1.028,1.763,3.673,2.2,4.113,1.175a18.751,18.751,0,0,0,.588-1.91c.147-.294.294-2.35-.441-2.644s-.294-5.436-1.028-6.464a14.12,14.12,0,0,1-1.012-2.9c-.154-.547-.31-1.128-.463-1.711-.62-2.39-1.169-4.795-1.169-4.795l.147-17.188-8.08-1.028-.207.457-.413.906Z" transform="translate(-152.474 -430.992)"/>
    <path id="Path_96" data-name="Path 96" class="cls-2" d="M124.828,720.61s-1.175-1.175-1.763,0-1.175,5.729-2.2,6.758-2.35,6.17-.881,6.464,3.085-.441,3.232-1.322,3.232-5.436,3.232-5.876-2.057-2.057-2.057-2.057Z" transform="translate(-110.746 -636.73)"/>
    <path id="Path_97" data-name="Path 97" class="cls-2" d="M174.029,430.365s-1.91,17.188-2.35,18.8a61.2,61.2,0,0,1-3.526,8.814c-.735,1.028-5.436,9.4-6.023,9.843s-1.763,1.616-1.763,1.616-2.2,2.2-2.5,2.644-2.791-.881-2.938-1.763a9.058,9.058,0,0,1,.294-2.938c.147-.588-.294-1.469.147-1.91s2.644-2.644,2.644-3.673,3.82-7.051,5.289-8.374a4.382,4.382,0,0,0,1.175-3.526v-8.961l-8.08-2.5s.441-7.051,1.469-7.051S172.413,429.043,174.029,430.365Z" transform="translate(-141.878 -382.77)"/>
    <circle id="Ellipse_15" data-name="Ellipse 15" class="cls-11" cx="4.848" cy="4.848" r="4.848" transform="translate(15.404 13.366)"/>
    <path id="Path_98" data-name="Path 98" class="cls-11" d="M180.53,210.582s.588,2.2,1.322,2.791-1.91,3.085-1.91,3.085l-4.995.294-.881-2.791s1.616-3.232,1.175-5.289S180.53,210.582,180.53,210.582Z" transform="translate(-158.663 -188.549)"/>
    <path id="Path_99" data-name="Path 99" class="cls-7" d="M176.4,248.18s-1.322.147-1.616.588a5.265,5.265,0,0,1-3.966,1.469c-1.616-.294-2.644-.735-2.938-.588s-.881,3.232-.881,3.232l1.616,4.7-.294,12.928-.441,3.526s-.881-1.175,2.644-.441,8.08-.588,9.549-.735,3.966-.588,4.113-1.469a23.242,23.242,0,0,0-.441-4.113l-2.35-9.843-1.469-5.289Z" transform="translate(-152.474 -223.649)"/>
    <path id="Path_100" data-name="Path 100" class="cls-12" d="M231.271,240.647s1.243-.659,1.683-.071,6.023,1.469,6.023,1.91,1.175,12.34.881,13.368a2.994,2.994,0,0,0,.588,2.2l1.028,4.407s2.791,8.374,1.616,8.667a7.648,7.648,0,0,1-2.644,0c-.441,0-.294-5.582-1.469-7.051a33.054,33.054,0,0,1-3.085-5.876c-.294-.735-3.966-10.871-3.82-12.046A32.143,32.143,0,0,0,231.271,240.647Z" transform="translate(-208.736 -216.779)"/>
    <path id="Path_101" data-name="Path 101" class="cls-12" d="M138.991,248.18s-1.175,0-1.322.294a16.076,16.076,0,0,1-2.2,2.644c-.588.441-2.644,2.35-2.644,2.791s4.26,3.673,4.26,3.673,1.763,8.667.881,11.606-2.2,9.99-1.616,10.43,1.91.588,1.91,0,.881-6.9,1.616-8.227,2.938-9.7,2.057-12.046S138.991,248.18,138.991,248.18Z" transform="translate(-122.559 -223.649)"/>
    <path id="Path_102" data-name="Path 102" class="cls-11" d="M264.633,364.847s.147,4.554-1.469,6.9a27.919,27.919,0,0,0-2.644,4.995s-2.644-.735-3.085-1.616-3.232-.147-3.232-.441,3.379-1.763,3.673-2.057,1.322-.294,1.91-.881a3.888,3.888,0,0,0,.734-1.91l.588-3.82Z" transform="translate(-228.809 -325.773)"/>
    <path id="Path_103" data-name="Path 103" class="cls-2" d="M171.442,141.694a2.794,2.794,0,0,0,1.087-.249,1.456,1.456,0,0,0,.372-2.155,2.787,2.787,0,0,0-.516-.415l-1.117-.76a5.462,5.462,0,0,0-1.575-.836,4.918,4.918,0,0,0-1.611-.1,10.883,10.883,0,0,0-3.085.561,5.163,5.163,0,0,0-2.5,1.829,5.5,5.5,0,0,0-.438,4.792,16.255,16.255,0,0,0,2.485,4.3l.506-2.468a.911.911,0,0,1,.286-.591c.454-.323,1.01.341,1.568.336a.939.939,0,0,0,.795-.629,3.584,3.584,0,0,0,.176-1.056,2.89,2.89,0,0,1,1.047-2.225A6.622,6.622,0,0,1,171.442,141.694Z" transform="translate(-147.852 -126.469)"/>
    <path id="Path_104" data-name="Path 104" class="cls-4" d="M231.1,498.648s-.5,14.352-.79,14.792,0-14.838,0-14.838Z" transform="translate(-207.777 -442.855)"/>
    <path id="Path_105" data-name="Path 105" class="cls-12" d="M283.664,257.607h1.175s4.995,6.758,4.407,7.2,0,1.616,0,1.616l1.175,2.2s1.469,1.322,1.028,1.616a5.368,5.368,0,0,0-1.028,1.469s-2.938-.441-3.82,1.322l-1.905-2.405Z" transform="translate(-254.598 -231.901)"/>
    <rect id="Rectangle_67" data-name="Rectangle 67" class="cls-2" width="4.363" height="8.131" transform="translate(25.448 29.545) rotate(-22.438)"/>
    <ellipse id="Ellipse_16" data-name="Ellipse 16" class="cls-7" cx="0.873" cy="0.802" rx="0.873" ry="0.802" transform="translate(27.59 31.138) rotate(-22.438)"/>
    <path id="Path_106" data-name="Path 106" class="cls-11" d="M170.082,307.533s-10.577,8.814-12.34,6.023,1.91-5.142,1.91-5.142a12.94,12.94,0,0,0,6.9-2.2l3.673-1.616s3.353-4.787,4.5-2.964S172.774,306.626,170.082,307.533Z" transform="translate(-143.955 -270.075)"/>
    <path id="Path_107" data-name="Path 107" class="cls-12" d="M130.311,289.426l-1.616.588v4.407l-.588.881a5.44,5.44,0,0,0,.588,2.2c.441.441,1.322.294,1.028,1.322a5.568,5.568,0,0,0-.147,2.057s2.644,3.379,2.791,2.938,2.2-5.876,2.5-5.876-2.938-8.521-2.938-8.521Z" transform="translate(-118.433 -259.754)"/>
    <path id="Path_108" data-name="Path 108" class="cls-2" d="M278.822,450.018s1.519-1.469.759-1.542-3.4-1.543-3.845-.808S278.822,450.018,278.822,450.018Z" transform="translate(-247.626 -398.09)"/>
    <ellipse id="Ellipse_17" data-name="Ellipse 17" class="cls-13" cx="2" cy="1" rx="2" ry="1" transform="translate(58 21.864)"/>
    <path id="Path_109" data-name="Path 109" class="cls-9" d="M496.836,215.59a19.656,19.656,0,0,0-14.336,0v-5.859a24.812,24.812,0,0,1,14.336,0Z" transform="translate(-428.647 -189.068)"/>
    <path id="Path_110" data-name="Path 110" class="cls-9" d="M508.847,219.386a14.186,14.186,0,0,0-10.347,0v-4.229a17.907,17.907,0,0,1,10.347,0Z" transform="translate(-442.653 -194.075)"/>
    <ellipse id="Ellipse_18" data-name="Ellipse 18" class="cls-9" cx="2" cy="1.5" rx="2" ry="1.5" transform="translate(59 20.864)"/>
    <ellipse id="Ellipse_19" data-name="Ellipse 19" class="cls-13" cx="2.119" cy="1.122" rx="2.119" ry="1.122" transform="matrix(0.98, -0.2, 0.2, 0.98, 59.118, 29.157)"/>
    <path id="Path_111" data-name="Path 111" class="cls-9" d="M506.028,266.058a19.656,19.656,0,0,0-14.046,2.867l-1.172-5.741a24.812,24.812,0,0,1,14.046-2.867Z" transform="translate(-435.922 -234.183)"/>
    <path id="Path_112" data-name="Path 112" class="cls-9" d="M518.142,271.155A14.186,14.186,0,0,0,508,273.224l-.846-4.143a17.908,17.908,0,0,1,10.138-2.069Z" transform="translate(-450.232 -240.068)"/>
    <ellipse id="Ellipse_20" data-name="Ellipse 20" class="cls-9" cx="2.119" cy="1.122" rx="2.119" ry="1.122" transform="matrix(0.98, -0.2, 0.2, 0.98, 59.752, 28.518)"/>
    <ellipse id="Ellipse_21" data-name="Ellipse 21" class="cls-13" cx="1.122" cy="2.119" rx="1.122" ry="2.119" transform="translate(58.788 37.777) rotate(-86.019)"/>
    <path id="Path_113" data-name="Path 113" class="cls-9" d="M502.013,328.718a19.656,19.656,0,0,0-14.3-1l.407-5.845a24.812,24.812,0,0,1,14.3,1Z" transform="translate(-433.21 -287.62)"/>
    <path id="Path_114" data-name="Path 114" class="cls-9" d="M514.671,332.483a14.186,14.186,0,0,0-10.322-.718l.294-4.218a17.907,17.907,0,0,1,10.322.718Z" transform="translate(-447.773 -292.731)"/>
    <ellipse id="Ellipse_22" data-name="Ellipse 22" class="cls-9" cx="1.122" cy="2.119" rx="1.122" ry="2.119" transform="translate(59.569 37.332) rotate(-86.019)"/>
    <path id="Path_115" data-name="Path 115" class="cls-9" d="M355.145,263.876s-9.162-1.253-15.7,2.581" transform="translate(-303.421 -237.217)"/>
    <path id="Path_116" data-name="Path 116" class="cls-10" d="M287.53,224.459l.238.075-.372,1.172,1.2.285-.058.243-1.456-.348Z" transform="translate(-251.29 -196.508)"/>
  </g>
</svg>
