<svg id="Find_your_place" data-name="Find your place" xmlns="http://www.w3.org/2000/svg" width="106.622" height="119.495" viewBox="0 0 106.622 119.495">
  <defs>
    <style>
      .cls-1 {
        fill: #e6e6e6;
      }

      .cls-2 {
        fill: #fff;
      }

      .cls-3 {
        fill: #6300d9;
      }

      .cls-4 {
        fill: #3f3d56;
      }

      .cls-5 {
        fill: #2f2e41;
      }

      .cls-6 {
        fill: #ccc;
      }
    </style>
  </defs>
  <path id="Path_3" data-name="Path 3" class="cls-1" d="M344.894,114.507h-.657V96.521a10.41,10.41,0,0,0-10.41-10.41H295.721a10.41,10.41,0,0,0-10.41,10.41V195.2a10.41,10.41,0,0,0,10.41,10.41h38.106a10.41,10.41,0,0,0,10.41-10.41V127.31h.657Z" transform="translate(-285.311 -86.111)"/>
  <path id="Path_4" data-name="Path 4" class="cls-2" d="M348.869,102.606H343.9a3.693,3.693,0,0,1-3.42,5.088H318.645a3.693,3.693,0,0,1-3.42-5.088h-4.646a7.774,7.774,0,0,0-7.774,7.774v98.53a7.774,7.774,0,0,0,7.774,7.774h38.29a7.774,7.774,0,0,0,7.774-7.774h0V110.38a7.774,7.774,0,0,0-7.774-7.774Z" transform="translate(-299.933 -99.898)"/>
  <path id="a2804879-ded6-4045-b20f-1f1dde9b938b" class="cls-1" d="M373.426,507.3H327.515a.851.851,0,0,1-.85-.85V495.063a.851.851,0,0,1,.85-.85h45.911a.851.851,0,0,1,.85.85v11.389A.851.851,0,0,1,373.426,507.3Zm-45.911-12.749a.511.511,0,0,0-.51.51v11.389a.511.511,0,0,0,.51.51h45.911a.511.511,0,0,0,.51-.51V495.063a.511.511,0,0,0-.51-.51Z" transform="translate(-319.875 -427.206)"/>
  <circle id="b9ad11c9-d8a0-4df6-8741-900b9ec46a35" class="cls-1" cx="3.571" cy="3.571" r="3.571" transform="translate(10.021 69.98)"/>
  <path id="bd261eec-7ae0-49b0-bf26-57ff03972605" class="cls-1" d="M415.287,519.573a.6.6,0,1,0,0,1.19h28.057a.6.6,0,1,0,.023-1.19h-28.08Z" transform="translate(-393.449 -448.402)"/>
  <path id="e80b4447-8c34-435b-ba6c-5300a190ab24" class="cls-1" d="M415.287,541.321a.6.6,0,1,0,0,1.19h28.057a.6.6,0,1,0,.02-1.19H415.287Z" transform="translate(-393.449 -466.579)"/>
  <path id="e55fcb7d-3a3b-45d8-b167-72fb2263dd92" class="cls-1" d="M373.426,623.292H327.515a.851.851,0,0,1-.85-.85V611.053a.851.851,0,0,1,.85-.85h45.911a.851.851,0,0,1,.85.85v11.389A.851.851,0,0,1,373.426,623.292Zm-45.911-12.749a.511.511,0,0,0-.51.51v11.389a.511.511,0,0,0,.51.51h45.911a.511.511,0,0,0,.51-.51V611.053a.511.511,0,0,0-.51-.51Z" transform="translate(-319.875 -524.152)"/>
  <circle id="a50d232f-7710-43e4-8fa9-6ef0443fc454" class="cls-1" cx="3.571" cy="3.571" r="3.571" transform="translate(10.021 89.025)"/>
  <path id="e49b4965-a9e9-4371-9134-194e44e65c31" class="cls-1" d="M415.287,635.563a.6.6,0,1,0,0,1.19h28.057a.6.6,0,0,0,.02-1.19H415.287Z" transform="translate(-393.449 -545.348)"/>
  <path id="abc4586a-ac92-4255-aae6-84f53baad571" class="cls-1" d="M415.287,657.311a.6.6,0,1,0,0,1.19h28.057a.6.6,0,1,0,.02-1.19H415.287Z" transform="translate(-393.449 -563.525)"/>
  <path id="a9e593af-a319-4e97-9065-f0c2c04624d5" class="cls-1" d="M383.538,265.534a16.147,16.147,0,0,1-16.154-16.14v-.013c0-.034,0-.069,0-.1a16.154,16.154,0,1,1,16.154,16.257h0Zm0-31.968a15.848,15.848,0,0,0-15.812,15.721c0,.036,0,.066,0,.093a15.816,15.816,0,1,0,15.816-15.814Z" transform="translate(-353.908 -209.071)"/>
  <circle id="Ellipse_2" data-name="Ellipse 2" class="cls-2" cx="6.568" cy="6.568" r="6.568" transform="translate(45.171 62.859)"/>
  <path id="Path_5" data-name="Path 5" class="cls-3" d="M559.7,509.568h-3.564a1.707,1.707,0,1,1,0-3.414h3.588a1.707,1.707,0,1,1-.023,3.414Z" transform="translate(-510.239 -437.186)"/>
  <rect id="Rectangle_12" data-name="Rectangle 12" class="cls-4" width="53.203" height="0.368" transform="translate(53.419 119.095)"/>
  <path id="Path_6" data-name="Path 6" class="cls-3" d="M625.436,565.933a1.076,1.076,0,0,1-.1-.207l-.848-2.27a1.069,1.069,0,0,1,.626-1.373l18.922-7.065a1.068,1.068,0,0,1,1.373.626l.848,2.27a1.067,1.067,0,0,1-.626,1.373l-18.922,7.065A1.069,1.069,0,0,1,625.436,565.933Z" transform="translate(-568.739 -477.971)"/>
  <path id="Path_7" data-name="Path 7" class="cls-5" d="M700.778,551.471l-7.694,3.068a.985.985,0,0,0-.672,1.182l.893,3.575a.985.985,0,0,0,1.375.653l7.716-3.632a.987.987,0,0,0,.579-1.267l-.928-3A.987.987,0,0,0,700.778,551.471Z" transform="translate(-625.544 -475.011)"/>
  <path id="Path_8" data-name="Path 8" class="cls-3" d="M789.693,575.4a1.068,1.068,0,0,1-1.132-.713l-6.586-19.094a1.067,1.067,0,0,1,.661-1.357l2.291-.79a1.068,1.068,0,0,1,1.357.661L792.87,573.2a1.069,1.069,0,0,1-.661,1.357l-2.291.79A1.077,1.077,0,0,1,789.693,575.4Z" transform="translate(-700.378 -476.665)"/>
  <path id="Path_9" data-name="Path 9" class="cls-5" d="M786.96,552.4l2.528,7.889a.985.985,0,0,1-.484,1.271l-3.327,1.586a.985.985,0,0,1-1.378-.646l-2.107-8.263a.987.987,0,0,1,.609-1.253l2.905-1.193A.987.987,0,0,1,786.96,552.4Z" transform="translate(-700.563 -475.28)"/>
  <path id="Path_10" data-name="Path 10" class="cls-5" d="M747.122,698.431H744.7a1.068,1.068,0,0,1-1.067-1.067v-20.2A1.068,1.068,0,0,1,744.7,676.1h2.423a1.068,1.068,0,0,1,1.067,1.067v20.2A1.069,1.069,0,0,1,747.122,698.431Z" transform="translate(-668.379 -579.228)"/>
  <path id="Path_11" data-name="Path 11" class="cls-5" d="M776.314,698.431H773.89a1.068,1.068,0,0,1-1.067-1.067v-20.2a1.068,1.068,0,0,1,1.067-1.067h2.423a1.068,1.068,0,0,1,1.067,1.067v20.2A1.068,1.068,0,0,1,776.314,698.431Z" transform="translate(-692.778 -579.228)"/>
  <path id="Path_12" data-name="Path 12" class="cls-6" d="M744.344,566.278H733.333a1.15,1.15,0,0,1-1.149-1.149V547.241a6.655,6.655,0,1,1,13.31,0v17.888a1.151,1.151,0,0,1-1.149,1.149Z" transform="translate(-658.812 -465.965)"/>
  <path id="Path_13" data-name="Path 13" class="cls-5" d="M787.924,563.106h-5.583v-31.55l.1.028a7.452,7.452,0,0,1,5.479,7.173Z" transform="translate(-700.733 -458.418)"/>
  <path id="Path_14" data-name="Path 14" class="cls-5" d="M731.909,563.106h-5.582V538.758a7.451,7.451,0,0,1,5.479-7.173l.1-.028Z" transform="translate(-653.915 -458.418)"/>
  <circle id="Ellipse_3" data-name="Ellipse 3" class="cls-3" cx="8.787" cy="8.787" r="8.787" transform="translate(71.157 53.346)"/>
  <path id="Path_15" data-name="Path 15" class="cls-5" d="M724.478,384.76s.493-13.628-5.911-9.195c0,0-3.694-12.4-12.725,6.157l-2.627,2.627s11.822-1.642,22.823,3.448Z" transform="translate(-634.599 -324.65)"/>
  <path id="Path_16" data-name="Path 16" class="cls-5" d="M761.487,462.58a3.021,3.021,0,0,1-1.739-.414,1.336,1.336,0,0,1-.525-1,.9.9,0,0,1,.305-.738,1.159,1.159,0,0,1,1.1-.158l-.443-3.239.325-.045.521,3.808-.272-.125a.994.994,0,0,0-1.016.009.577.577,0,0,0-.189.475,1.009,1.009,0,0,0,.391.743,2.717,2.717,0,0,0,1.554.351Z" transform="translate(-681.409 -396.095)"/>
  <rect id="Rectangle_13" data-name="Rectangle 13" class="cls-5" width="1.769" height="0.328" transform="translate(75.395 61.219)"/>
  <rect id="Rectangle_14" data-name="Rectangle 14" class="cls-5" width="1.769" height="0.328" transform="translate(80.978 61.219)"/>
  <path id="Path_17" data-name="Path 17" class="cls-4" d="M616.911,555.208a.985.985,0,0,1-1.308-.479l-5.666-12.213a.985.985,0,1,1,1.787-.829L617.39,553.9a.985.985,0,0,1-.479,1.308Z" transform="translate(-556.559 -466.408)"/>
  <path id="Path_18" data-name="Path 18" class="cls-3" d="M568.948,494.289a.657.657,0,0,1-.657-.657v-8.366h-8.209a.657.657,0,0,1,0-1.314h8.866a.657.657,0,0,1,.657.657v9.023a.657.657,0,0,1-.657.657Z" transform="translate(-514.418 -418.631)"/>
  <path id="Path_19" data-name="Path 19" class="cls-4" d="M561.358,476.039a7.881,7.881,0,1,1,3.832-10.466A7.881,7.881,0,0,1,561.358,476.039Zm-5.8-12.511a5.911,5.911,0,1,0,7.85,2.874,5.911,5.911,0,0,0-7.85-2.874Z" transform="translate(-506.672 -399.452)"/>
</svg>
