<svg xmlns="http://www.w3.org/2000/svg" width="132.756" height="103.321" viewBox="0 0 132.756 103.321">
  <defs>
    <style>
      .cls-1 {
        fill: #3f3d56;
      }

      .cls-2 {
        fill: #d0cde1;
      }

      .cls-3 {
        fill: #2f2e41;
      }

      .cls-4 {
        fill: #a0616a;
      }

      .cls-5 {
        opacity: 0.15;
      }

      .cls-6 {
        opacity: 0.1;
      }

      .cls-7 {
        fill: #6300d9;
      }
    </style>
  </defs>
  <g id="Secure_online_paymes" data-name="Secure online paymes" transform="translate(0)">
    <path id="Path_20" data-name="Path 20" class="cls-1" d="M964.336,666.273a10.878,10.878,0,0,1,7-12.975l.186-.07.044.194a10.878,10.878,0,0,1-7,12.975l-.187.07Zm6.927-12.57a10.491,10.491,0,0,0-6.627,12.291,10.491,10.491,0,0,0,6.628-12.291Z" transform="translate(-847.371 -570.185)"/>
    <path id="Path_21" data-name="Path 21" class="cls-2" d="M970.771,691.079a12.434,12.434,0,0,0-4.756,6.169,10.705,10.705,0,0,0,12.435-7.481A12.434,12.434,0,0,0,970.771,691.079Z" transform="translate(-849.005 -601.232)"/>
    <path id="Path_22" data-name="Path 22" class="cls-1" d="M267.127,166.413c-.408,0-.821-.006-1.226-.019l.009-.294c.581.018,1.175.023,1.759.015l0,.294Q267.4,166.413,267.127,166.413Zm2.317-.068-.017-.294c.582-.034,1.172-.083,1.753-.143l.031.293c-.585.061-1.18.11-1.766.145Zm-5.313-.046c-.587-.045-1.18-.1-1.764-.175l.036-.292c.579.071,1.167.13,1.75.174Zm8.837-.324-.044-.291c.579-.088,1.161-.19,1.732-.3l.057.289c-.575.114-1.163.217-1.746.306Zm-12.354-.108c-.58-.1-1.166-.211-1.74-.336l.062-.288c.57.124,1.151.236,1.727.333Zm15.829-.583-.071-.286c.568-.14,1.139-.3,1.7-.461l.084.282c-.563.167-1.138.323-1.71.465Zm-19.292-.169c-.569-.151-1.142-.318-1.7-.5l.089-.281c.556.176,1.124.341,1.689.491Zm22.689-.839-.1-.278c.551-.192,1.105-.4,1.648-.616l.109.273c-.546.219-1.1.427-1.66.62Zm-26.072-.231c-.553-.2-1.109-.422-1.652-.651l.114-.271c.54.227,1.091.445,1.64.647Zm29.359-1.084-.122-.268c.529-.24,1.061-.5,1.581-.763l.134.262c-.524.268-1.06.526-1.593.769Zm3.149-1.61-.146-.256c.508-.29,1.014-.594,1.506-.9l.157.249c-.5.313-1.006.62-1.517.912Zm2.991-1.892-.168-.241c.478-.334.955-.684,1.417-1.039l.179.233c-.466.358-.947.711-1.428,1.047Zm-44.864-.415c-.475-.345-.95-.707-1.411-1.075l.184-.23c.457.365.928.724,1.4,1.066Zm47.672-1.743-.19-.225c.445-.376.889-.768,1.318-1.164l.2.216c-.432.4-.879.794-1.328,1.173Zm-50.443-.469c-.442-.387-.882-.791-1.307-1.2l.2-.212c.421.4.857.8,1.3,1.189Zm53.044-1.937-.21-.207c.411-.416.817-.847,1.207-1.28l.219.2c-.393.437-.8.87-1.216,1.289Zm-55.6-.517c-.406-.427-.807-.868-1.192-1.311l.222-.193c.382.44.78.878,1.183,1.3Zm57.973-2.116-.227-.187c.371-.451.736-.917,1.086-1.385l.236.176C297.791,151.338,297.423,151.807,297.049,152.262Zm-60.3-.559c-.365-.461-.724-.936-1.067-1.414l.239-.172c.341.474.7.946,1.059,1.4Zm62.419-2.281-.243-.165c.328-.483.65-.981.956-1.479l.251.154C299.827,148.434,299.5,148.935,299.173,149.422Zm-64.487-.593c-.321-.492-.635-1-.933-1.5l.254-.149c.3.5.608,1,.926,1.493Zm66.343-2.43-.258-.142c.283-.511.557-1.037.816-1.561l.264.131c-.261.528-.538,1.058-.823,1.573Zm1.572-3.182-.27-.118c.235-.536.46-1.084.669-1.63l.275.105c-.211.55-.438,1.1-.675,1.643Zm-71.22-.635c-.226-.542-.442-1.1-.642-1.647l.277-.1c.2.547.413,1.1.637,1.634Zm72.493-2.681-.279-.093c.184-.553.357-1.119.515-1.682l.283.08c-.159.567-.334,1.137-.519,1.695Zm-73.7-.645c-.175-.561-.34-1.134-.489-1.7l.285-.075c.148.565.312,1.134.485,1.691Zm74.662-2.766-.287-.067c.132-.567.252-1.147.358-1.722l.289.053C305.088,135.334,304.966,135.918,304.834,136.49Zm-75.561-.661c-.123-.575-.234-1.161-.33-1.741l.29-.048c.1.576.206,1.157.328,1.728Zm76.2-2.823-.292-.04c.079-.576.146-1.164.2-1.747l.293.026C305.622,131.831,305.555,132.424,305.475,133Zm-76.783-.672c-.069-.583-.126-1.176-.169-1.764l.294-.022c.043.583.1,1.172.168,1.751Zm77.1-2.857-.294-.013c.026-.583.04-1.175.04-1.758h.294C305.835,128.292,305.822,128.888,305.8,129.476Zm-77.361-.677c-.01-.361-.015-.729-.015-1.094q0-.34.006-.678l.294.005q-.006.336-.006.673c0,.362.005.728.015,1.086Zm.355-3.525-.294-.018c.037-.588.087-1.182.151-1.766l.293.032c-.063.579-.113,1.169-.149,1.752Zm76.562-1.8c-.059-.58-.14-.863-.225-1.441l.291-.043c.086.582.16,1.027.219,1.611Zm-76.183-1.7-.291-.045c.09-.582.195-1.169.311-1.745l.288.058c-.115.571-.219,1.153-.309,1.731Zm75.661-1.474c-.112-.574-.239-1.152-.377-1.718l.286-.07c.139.57.266,1.153.379,1.731Zm-74.964-1.972-.286-.072c.143-.57.3-1.145.471-1.709l.282.085C230.163,117.2,230.006,117.766,229.864,118.332ZM304,116.887c-.164-.56-.344-1.124-.533-1.676l.278-.1c.191.556.372,1.124.537,1.689Zm-73.119-1.928-.278-.1c.2-.556.407-1.116.628-1.662l.273.11c-.219.542-.429,1.1-.623,1.649Zm71.976-1.4c-.215-.542-.445-1.085-.684-1.616l.268-.121c.241.535.472,1.083.689,1.628Zm-70.654-1.87-.267-.123c.246-.535.508-1.072.778-1.6l.262.135C232.7,110.628,232.443,111.161,232.2,111.692Zm69.214-1.33c-.263-.52-.543-1.04-.83-1.548l.256-.145c.289.511.57,1.036.836,1.559Zm-67.6-1.8-.255-.147c.294-.51.6-1.02.92-1.517l.248.158C234.413,107.55,234.106,108.057,233.814,108.563Zm65.869-1.256c-.311-.5-.637-.988-.968-1.466l.242-.168c.334.481.662.978.975,1.477ZM235.709,105.6l-.241-.17c.339-.481.694-.961,1.055-1.426l.233.18C236.4,104.642,236.046,105.118,235.709,105.6Zm61.972-1.176c-.355-.465-.724-.926-1.1-1.373l.226-.189c.377.45.749.915,1.107,1.383Zm-59.815-1.6-.224-.191c.381-.447.778-.892,1.18-1.323l.215.2C238.638,101.929,238.244,102.371,237.866,102.815Zm57.557-1.09c-.4-.43-.806-.857-1.219-1.268l.208-.209c.417.414.83.844,1.228,1.277Zm-55.158-1.481-.206-.21c.421-.412.856-.819,1.294-1.21l.2.22c-.435.388-.867.792-1.285,1.2Zm52.663-1c-.433-.393-.881-.781-1.33-1.152l.188-.227c.452.374.9.765,1.34,1.161ZM242.888,97.9l-.186-.228c.455-.371.926-.736,1.4-1.087l.175.236c-.469.348-.936.711-1.388,1.079Zm2.823-2.092-.164-.244c.487-.328.989-.649,1.491-.954l.153.252c-.5.3-1,.622-1.479.947Zm3-1.825-.141-.258c.515-.282,1.044-.556,1.571-.814l.129.264C249.748,93.432,249.223,93.7,248.712,93.984Zm35.525-.682c-.524-.261-1.06-.513-1.595-.749l.119-.269c.539.238,1.079.492,1.607.755Zm-32.372-.86-.117-.27c.539-.234,1.09-.457,1.638-.666l.1.275C252.946,91.988,252.4,92.21,251.865,92.442Zm29.149-.564c-.545-.211-1.1-.413-1.658-.6l.094-.279c.559.188,1.122.391,1.671.6ZM255.148,91.2l-.092-.28c.559-.183,1.13-.356,1.7-.513l.079.284c-.562.156-1.128.327-1.683.509Zm22.528-.438c-.561-.16-1.134-.309-1.7-.443l.068-.286c.572.135,1.149.285,1.715.446Zm-19.139-.5-.066-.287c.574-.131,1.158-.25,1.736-.355l.052.29C259.685,90.006,259.105,90.125,258.536,90.255Zm15.717-.3c-.573-.108-1.157-.2-1.735-.285l.041-.291c.583.082,1.171.178,1.749.287ZM262,89.63l-.039-.292c.583-.078,1.175-.143,1.761-.194l.026.293C263.163,89.488,262.575,89.553,262,89.63Zm8.774-.169c-.58-.055-1.17-.1-1.754-.125l.014-.294c.589.029,1.183.071,1.767.126Zm-5.271-.137-.012-.294c.541-.023,1.092-.034,1.639-.034h.133v.294h-.132c-.542,0-1.09.012-1.627.034Z" transform="translate(-219.968 -88.996)"/>
    <rect id="Rectangle_15" data-name="Rectangle 15" class="cls-1" width="107.883" height="0.294" transform="translate(24.873 96.004)"/>
    <path id="Path_23" data-name="Path 23" class="cls-3" d="M635.452,405l1.472,22.813s3.532,8.978,3.385,17.514c0,0-1.325,3.385-.294,3.974s1.619,1.03,1.03,1.472-1.03,1.472-.589,1.766.589.736.442.736h-4.415s.883-2.208-.441-2.8-.589-2.061-.589-2.061l-9.861-28.847-7.8,26.492s1.325.883.294,1.325-1.472-.442-1.03.442a1.37,1.37,0,0,1-.147,1.472c0,.147-4.415-.442-4.415-.442s2.208-1.913,1.177-2.355-1.472-.883-1.177-1.177a27.887,27.887,0,0,0,1.472-3.091s.589-10.6.736-11.038a27.838,27.838,0,0,0,0-3.532c0-1.03-.147-5.151.294-6.182s.883-13.688,3.238-15.159S635.452,405,635.452,405Z" transform="translate(-547.438 -358.485)"/>
    <path id="Path_24" data-name="Path 24" class="cls-3" d="M574.625,699.078s2.944,6.034.883,6.77-4.71.147-5.3,1.03-7.065,1.913-7.212-.294,7.065-6.329,7.065-6.329l.939-1.513Z" transform="translate(-505.302 -609.001)"/>
    <path id="Path_25" data-name="Path 25" class="cls-3" d="M736.625,729.078s2.944,6.034.883,6.77-4.71.147-5.3,1.03-7.065,1.913-7.212-.294,7.065-6.329,7.065-6.329l.939-1.513Z" transform="translate(-643.459 -634.585)"/>
    <circle id="Ellipse_4" data-name="Ellipse 4" class="cls-4" cx="4.857" cy="4.857" r="4.857" transform="translate(74.695 9.055)"/>
    <path id="Path_26" data-name="Path 26" class="cls-4" d="M527.193,112.025l-.589,4.268-4.415,3.385-1.177-1.619v-5.593Z" transform="translate(-444.329 -95.537)"/>
    <path id="Path_27" data-name="Path 27" class="cls-1" d="M653.751,231.2s4.563.442,6.917-1.177l4.71,27.817s-16.631,1.325-17.367.442V249.6l2.944-14.129Z" transform="translate(-577.805 -209.265)"/>
    <path id="Path_28" data-name="Path 28" class="cls-2" d="M706.209,220.985l1.583,1.33s6.476,1.03,6.034,2.8l-1.766,20.9.589,7.065s-5-1.325-8.831,0-.786-28.465-.786-28.465S706.54,221.421,706.209,220.985Z" transform="translate(-623.751 -201.559)"/>
    <path id="Path_29" data-name="Path 29" class="cls-2" d="M646.812,231.931s-4.71,3.4-5.3,5.606-2.5,25.462-2.5,25.462.883-.442,1.325.294S647.547,233.1,646.812,231.931Z" transform="translate(-570.13 -210.894)"/>
    <path id="Path_30" data-name="Path 30" class="cls-3" d="M676.384,138.291a2.322,2.322,0,0,1-.323-1.638,4.967,4.967,0,0,0,.141-1.476,14.612,14.612,0,0,1,.849-2.144c.425-.768.222-1.092,1.557-1.335s.789-1.982,4.307-.1a1.032,1.032,0,0,0,1.072.4c.728-.142.991.87.991.87s.485-.283.667.121,1.48-.243,1.48,2.487a11.3,11.3,0,0,1-1.477,5.169s.108-4.592-2.3-5.057-4.995-1.82-5.622-.081A13.258,13.258,0,0,1,676.384,138.291Z" transform="translate(-601.687 -124.59)"/>
    <ellipse id="Ellipse_5" data-name="Ellipse 5" class="cls-4" cx="0.475" cy="0.633" rx="0.475" ry="0.633" transform="translate(83.54 13.527)"/>
    <path id="Path_31" data-name="Path 31" class="cls-2" d="M588.323,490.843a5.3,5.3,0,0,0-3.1-.593,4.574,4.574,0,0,0,5.081,3.057A5.3,5.3,0,0,0,588.323,490.843Z" transform="translate(-524.256 -431.169)"/>
    <path id="Path_32" data-name="Path 32" class="cls-2" d="M591.817,588.87h-7.279a1.638,1.638,0,1,0,0,3.276h7.279a1.638,1.638,0,0,0,0-3.276Z" transform="translate(-522.277 -515.299)"/>
    <path id="Path_33" data-name="Path 33" class="cls-2" d="M610.017,471.412h-40.81a3.615,3.615,0,0,0-3.615,3.615v19.884a3.615,3.615,0,0,0,3.615,3.615h40.811a3.615,3.615,0,0,0,3.615-3.615V475.027a3.615,3.615,0,0,0-3.615-3.615Zm-41.82,2.466a4.989,4.989,0,0,1,5.789,3.483l.064.2-.205.036a5.444,5.444,0,0,1-.885.065,5.273,5.273,0,0,1-2.689-.678,5.711,5.711,0,0,1-2.215-2.87l-.064-.2Zm8.859,18.461h-7.279a2,2,0,0,1,0-4h7.279a2,2,0,1,1,0,4Zm33.119-.364a2.19,2.19,0,0,1-2.184,2.184h-5.459a2.19,2.19,0,0,1-2.184-2.184V488.7a2.19,2.19,0,0,1,2.184-2.184h5.459a2.19,2.19,0,0,1,2.184,2.184Z" transform="translate(-507.516 -415.128)"/>
    <path id="Path_34" data-name="Path 34" class="cls-2" d="M810.928,606.8h-2.366a.637.637,0,0,0,0,1.274h2.366a.637.637,0,0,0,0-1.274Zm0,.91h-2.366a.273.273,0,1,1,0-.546h2.366a.273.273,0,1,1,0,.546Z" transform="translate(-714.184 -530.588)"/>
    <path id="Path_35" data-name="Path 35" class="cls-2" d="M840.6,606.8h-2.366a.637.637,0,1,0,0,1.274H840.6a.637.637,0,0,0,0-1.274Zm0,.91h-2.366a.273.273,0,1,1,0-.546H840.6a.273.273,0,1,1,0,.546Z" transform="translate(-739.489 -530.588)"/>
    <path id="Path_36" data-name="Path 36" class="cls-2" d="M810.928,595.67h-2.366a.637.637,0,0,0,0,1.274h2.366a.637.637,0,0,0,0-1.274Zm0,.91h-2.366a.273.273,0,1,1,0-.546h2.366a.273.273,0,1,1,0,.546Z" transform="translate(-714.184 -521.098)"/>
    <path id="Path_37" data-name="Path 37" class="cls-2" d="M840.6,595.67h-2.366a.637.637,0,1,0,0,1.274H840.6a.637.637,0,0,0,0-1.274Zm0,.91h-2.366a.273.273,0,1,1,0-.546H840.6a.273.273,0,1,1,0,.546Z" transform="translate(-739.489 -521.098)"/>
    <path id="Path_38" data-name="Path 38" class="cls-2" d="M810.928,584.542h-2.366a.637.637,0,0,0,0,1.274h2.366a.637.637,0,0,0,0-1.274Zm0,.91h-2.366a.273.273,0,1,1,0-.546h2.366a.273.273,0,1,1,0,.546Z" transform="translate(-714.184 -511.608)"/>
    <path id="Path_39" data-name="Path 39" class="cls-2" d="M840.6,584.542h-2.366a.637.637,0,1,0,0,1.274H840.6a.637.637,0,0,0,0-1.274Zm0,.91h-2.366a.273.273,0,1,1,0-.546H840.6a.273.273,0,1,1,0,.546Z" transform="translate(-739.489 -511.608)"/>
    <path id="Path_40" data-name="Path 40" class="cls-4" d="M744.1,435.051l-1.055,3.443s-.27,6.418-3.8,5.535,1.03-8.389,1.03-8.389l1.03-1.619Z" transform="translate(-654.463 -383.24)"/>
    <path id="Path_41" data-name="Path 41" class="cls-4" d="M608.1,435.051l-1.055,3.443s-.27,6.418-3.8,5.535,1.03-8.389,1.03-8.389l1.03-1.619Z" transform="translate(-538.48 -383.24)"/>
    <path id="Path_42" data-name="Path 42" class="cls-2" d="M757.1,241.843s2.355-.589,3.091,3.385,1.619,15.307,1.619,15.307l-3.532,11.922s-3.532-1.913-4.268-1.619l2.78-10.35-2.338-10.55S756.513,241.843,757.1,241.843Z" transform="translate(-668.204 -219.321)"/>
    <path id="Path_43" data-name="Path 43" class="cls-5" d="M580.747,209.393l3.091,10.3-3.091,10.45,1.766-10.45Z" transform="translate(-495.273 -178.575)"/>
    <path id="Path_44" data-name="Path 44" class="cls-2" d="M625.309,297.021l-5.3,20.9a20.8,20.8,0,0,1,3.825,1.658Z" transform="translate(-553.926 -266.404)"/>
    <circle id="Ellipse_6" data-name="Ellipse 6" class="cls-1" cx="14.718" cy="14.718" r="14.718" transform="translate(1.083 53.703)"/>
    <circle id="Ellipse_7" data-name="Ellipse 7" class="cls-6" cx="12.657" cy="12.657" r="12.657" transform="translate(3.144 55.764)"/>
    <path id="Path_45" data-name="Path 45" class="cls-7" d="M260.007,517.856v-1.842a4.277,4.277,0,0,1-2.457-.8l.385-1.222a3.927,3.927,0,0,0,2.312.784,1.771,1.771,0,0,0,1.911-1.787c0-1-.626-1.623-1.814-2.171-1.638-.73-2.649-1.569-2.649-3.155a2.868,2.868,0,0,1,2.425-2.937v-1.842h1v1.769a3.907,3.907,0,0,1,2.087.638l-.4,1.2a3.548,3.548,0,0,0-2.023-.62,1.541,1.541,0,0,0-1.7,1.569c0,.948.594,1.423,1.991,2.079,1.654.766,2.489,1.715,2.489,3.338a3.052,3.052,0,0,1-2.537,3.1v1.9Z" transform="translate(-244.813 -441.966)"/>
    <path id="Path_46" data-name="Path 46" class="cls-1" d="M202.349,736.821a106.265,106.265,0,0,1-31.349,0v-3.532a118.091,118.091,0,0,0,31.349,0Z" transform="translate(-171 -638.462)"/>
    <path id="Path_47" data-name="Path 47" class="cls-1" d="M202.349,699.821a106.265,106.265,0,0,1-31.349,0v-3.532a118.086,118.086,0,0,0,31.349,0Z" transform="translate(-171 -606.908)"/>
    <path id="Path_48" data-name="Path 48" class="cls-1" d="M202.349,662.821a106.265,106.265,0,0,1-31.349,0v-3.532a118.086,118.086,0,0,0,31.349,0Z" transform="translate(-171 -575.354)"/>
  </g>
</svg>
