<svg xmlns="http://www.w3.org/2000/svg" xmlns:xlink="http://www.w3.org/1999/xlink" width="136.444" height="103.425" viewBox="0 0 136.444 103.425">
  <defs>
    <style>
      .cls-1, .cls-12, .cls-4 {
        fill: #6300d9;
      }

      .cls-1, .cls-7 {
        opacity: 0.1;
      }

      .cls-11, .cls-12, .cls-2, .cls-5 {
        opacity: 0.5;
      }

      .cls-3 {
        fill: none;
        stroke: #535461;
        stroke-miterlimit: 10;
        stroke-width: 2px;
      }

      .cls-5, .cls-9 {
        fill: #fff;
      }

      .cls-6 {
        fill: #474059;
      }

      .cls-8 {
        fill: url(#linear-gradient);
      }

      .cls-10, .cls-11 {
        fill: #c0bccf;
      }

      .cls-13 {
        fill: url(#linear-gradient-2);
      }

      .cls-14 {
        fill: #493545;
      }

      .cls-15 {
        fill: #c77485;
      }

      .cls-16 {
        fill: #444176;
      }

      .cls-17 {
        fill: url(#linear-gradient-3);
      }

      .cls-18 {
        fill: #f1d2d7;
      }

      .cls-19 {
        fill: url(#linear-gradient-4);
      }

      .cls-20 {
        fill: #53526b;
      }

      .cls-21 {
        opacity: 0.05;
      }

      .cls-22 {
        fill: #5f5d7e;
      }

      .cls-23 {
        opacity: 0.02;
      }

      .cls-24 {
        fill: #e82127;
      }

      .cls-25 {
        fill: #d6dbe6;
      }

      .cls-26 {
        fill: #fdc2cc;
      }

      .cls-27 {
        fill: #865a61;
      }

      .cls-28 {
        fill: url(#linear-gradient-5);
      }

      .cls-29 {
        fill: url(#linear-gradient-6);
      }

      .cls-30 {
        fill: #555388;
      }
    </style>
    <linearGradient id="linear-gradient" x1="0.5" y1="1" x2="0.5" gradientUnits="objectBoundingBox">
      <stop offset="0" stop-color="gray" stop-opacity="0.251"/>
      <stop offset="0.54" stop-color="gray" stop-opacity="0.122"/>
      <stop offset="1" stop-color="gray" stop-opacity="0.102"/>
    </linearGradient>
    <linearGradient id="linear-gradient-2" y1="1" y2="0" xlink:href="#linear-gradient"/>
    <linearGradient id="linear-gradient-3" x1="0" y1="0.5" x2="1" y2="0.5" xlink:href="#linear-gradient"/>
    <linearGradient id="linear-gradient-4" x1="2.581" y1="1" x2="2.581" y2="0" xlink:href="#linear-gradient"/>
    <linearGradient id="linear-gradient-5" y1="1" y2="0" xlink:href="#linear-gradient"/>
    <linearGradient id="linear-gradient-6" x1="-25.357" y1="1.001" x2="-25.357" y2="0" xlink:href="#linear-gradient"/>
  </defs>
  <g id="Select_Tenants" data-name="Select Tenants" transform="translate(0 0.006)">
    <path id="Path_117" data-name="Path 117" class="cls-1" d="M171.488,80c-4.8,6.582-3.214,15.978-.441,23.463.929,2.506,1.984,5.156,1.5,7.882-.588,3.333-3.352,5.83-6.226,7.19a16.5,16.5,0,0,1-16.111-1.04c-4.043-2.7-6.89-7.175-11.012-9.742-6.9-4.295-15.854-2.376-23.532.9-5.432,2.319-11.382,5.307-16.675,3.165-3.725-1.507-6.233-5.344-7.553-9.445-.637-1.98-1.083-4.129-2.353-5.679a8.685,8.685,0,0,0-2.778-2.1c-9.36-4.9-21.4-1.838-30.474-7.306C49.71,83.6,45.9,76.431,44.313,68.9s-1.192-15.488-.561-23.305c.448-5.555,1.158-11.492,4.5-15.858A15.91,15.91,0,0,1,63,24.007c5.295.723,10.041,3.664,14.194,7.174,5.194,4.379,9.973,9.877,16.432,11.54,4.4,1.132,9.075.331,13.649-.023,7.646-.591,15.265.089,22.837.858,7.249.735,14.548,1.556,21.413,3.966,4.858,1.706,8.709,4.929,13.283,7.132,2.981,1.436,6.261,1.769,9.067,3.624,3.463,2.285,6.592,6.334,5.576,11.192C178.49,74.088,174.037,76.507,171.488,80Z" transform="translate(-43.2 -23.86)"/>
    <g id="Group_10" data-name="Group 10" class="cls-2" transform="translate(96.77 43.837)">
      <path id="Path_118" data-name="Path 118" class="cls-3" d="M898.19,478.732s.4-11.979,6.885-18.747a18.158,18.158,0,0,0,4.98-10.351,30.546,30.546,0,0,0,.152-5.584" transform="translate(-890.199 -436.406)"/>
      <path id="Path_119" data-name="Path 119" class="cls-4" d="M993.968,385.022c-.444,1.338-4.151,4.411-4.151,4.411s-1.136-4.682-.692-6.019a2.552,2.552,0,0,1,4.844,1.606Z" transform="translate(-969.9 -381.666)"/>
      <path id="Path_120" data-name="Path 120" class="cls-4" d="M999.881,447.37c-1.1.882-5.881,1.448-5.881,1.448s1.593-4.547,2.7-5.428a2.551,2.551,0,1,1,3.186,3.98Z" transform="translate(-974.269 -435.277)"/>
      <path id="Path_121" data-name="Path 121" class="cls-4" d="M964.719,546.885c-1.394.206-5.809-1.715-5.809-1.715s3.669-3.122,5.063-3.328a2.552,2.552,0,0,1,.746,5.048Z" transform="translate(-943.479 -522.191)"/>
      <path id="Path_122" data-name="Path 122" class="cls-4" d="M918.706,619.3c-1.339.439-6.016-.713-6.016-.713s3.089-3.7,4.428-4.135a2.552,2.552,0,0,1,1.593,4.849Z" transform="translate(-902.922 -585.816)"/>
      <path id="Path_123" data-name="Path 123" class="cls-4" d="M949.759,453.816c.651,1.25,4.8,3.7,4.8,3.7s.377-4.8-.273-6.053a2.551,2.551,0,0,0-4.526,2.355Z" transform="translate(-935.2 -441.702)"/>
      <path id="Path_124" data-name="Path 124" class="cls-4" d="M895.453,533.907c.995,1,5.685,2.092,5.685,2.092s-1.077-4.7-2.071-5.694a2.551,2.551,0,1,0-3.615,3.6Z" transform="translate(-887.144 -511.434)"/>
      <path id="Path_125" data-name="Path 125" class="cls-4" d="M858.815,624.787c.811,1.152,5.25,3.023,5.25,3.023s-.267-4.809-1.08-5.962a2.551,2.551,0,1,0-4.166,2.941Z" transform="translate(-855.199 -591.41)"/>
      <path id="Path_126" data-name="Path 126" class="cls-3" d="M867.393,550.808s-3.676-5.347-3.031-10.378a9.831,9.831,0,0,0-1.162-6.109,16.537,16.537,0,0,0-1.73-2.48" transform="translate(-857.978 -513.439)"/>
      <path id="Path_127" data-name="Path 127" class="cls-4" d="M845.344,499.126a10.965,10.965,0,0,1-.388,3.257s-2-1.674-2.237-2.4a1.381,1.381,0,1,1,2.626-.858Z" transform="translate(-841.464 -483.899)"/>
      <path id="Path_128" data-name="Path 128" class="cls-4" d="M873.715,520.5a10.988,10.988,0,0,1-2.1,2.523,10.956,10.956,0,0,1-.575-3.23,1.381,1.381,0,1,1,2.671.707Z" transform="translate(-866.351 -501.968)"/>
      <path id="Path_129" data-name="Path 129" class="cls-4" d="M888.533,572.291a10.952,10.952,0,0,1-3.083,1.12,10.923,10.923,0,0,1,1.135-3.078,1.382,1.382,0,0,1,1.948,1.961Z" transform="translate(-879.02 -546.863)"/>
      <path id="Path_130" data-name="Path 130" class="cls-4" d="M893.855,619.119A10.958,10.958,0,0,1,891,620.742a10.93,10.93,0,0,1,.6-3.225,1.381,1.381,0,0,1,2.252,1.6Z" transform="translate(-883.89 -588.108)"/>
      <path id="Path_131" data-name="Path 131" class="cls-4" d="M848.292,543.224a10.922,10.922,0,0,0,3.279.066,10.947,10.947,0,0,0-2.066-2.547,1.381,1.381,0,1,0-1.213,2.481Z" transform="translate(-845.735 -521.128)"/>
      <path id="Path_132" data-name="Path 132" class="cls-4" d="M850.424,595.612a10.926,10.926,0,0,0,3.149-.918,10.849,10.849,0,0,0-2.734-1.809,1.381,1.381,0,1,0-.415,2.731Z" transform="translate(-847.255 -566.991)"/>
      <path id="Path_133" data-name="Path 133" class="cls-4" d="M863.993,647.07a10.835,10.835,0,0,0,3.259-.368s-1.664-2.008-2.388-2.25a1.381,1.381,0,1,0-.871,2.622Z" transform="translate(-859.361 -612.191)"/>
      <path id="Path_134" data-name="Path 134" class="cls-5" d="M845.344,499.126a10.965,10.965,0,0,1-.388,3.257s-2-1.674-2.237-2.4a1.381,1.381,0,1,1,2.626-.858Z" transform="translate(-841.464 -483.899)"/>
      <path id="Path_135" data-name="Path 135" class="cls-5" d="M873.715,520.5a10.988,10.988,0,0,1-2.1,2.523,10.956,10.956,0,0,1-.575-3.23,1.381,1.381,0,1,1,2.671.707Z" transform="translate(-866.351 -501.968)"/>
      <path id="Path_136" data-name="Path 136" class="cls-5" d="M888.533,572.291a10.952,10.952,0,0,1-3.083,1.12,10.923,10.923,0,0,1,1.135-3.078,1.382,1.382,0,0,1,1.948,1.961Z" transform="translate(-879.02 -546.863)"/>
      <path id="Path_137" data-name="Path 137" class="cls-5" d="M893.855,619.119A10.958,10.958,0,0,1,891,620.742a10.93,10.93,0,0,1,.6-3.225,1.381,1.381,0,0,1,2.252,1.6Z" transform="translate(-883.89 -588.108)"/>
      <path id="Path_138" data-name="Path 138" class="cls-5" d="M848.292,543.224a10.922,10.922,0,0,0,3.279.066,10.947,10.947,0,0,0-2.066-2.547,1.381,1.381,0,1,0-1.213,2.481Z" transform="translate(-845.735 -521.128)"/>
      <path id="Path_139" data-name="Path 139" class="cls-5" d="M850.424,595.612a10.926,10.926,0,0,0,3.149-.918,10.849,10.849,0,0,0-2.734-1.809,1.381,1.381,0,1,0-.415,2.731Z" transform="translate(-847.255 -566.991)"/>
      <path id="Path_140" data-name="Path 140" class="cls-5" d="M863.993,647.07a10.835,10.835,0,0,0,3.259-.368s-1.664-2.008-2.388-2.25a1.381,1.381,0,1,0-.871,2.622Z" transform="translate(-859.361 -612.191)"/>
      <path id="Path_141" data-name="Path 141" class="cls-6" d="M792.384,666.925h10.456l2.615-15.945H789.77Z" transform="translate(-789.77 -615.058)"/>
      <path id="Path_142" data-name="Path 142" class="cls-7" d="M791.771,650.98l2.442,14.9h8.8l-.172,1.045H792.384L789.77,650.98Z" transform="translate(-789.77 -615.058)"/>
    </g>
    <rect id="Rectangle_68" data-name="Rectangle 68" class="cls-8" width="76.703" height="92.547" transform="translate(24.663 4.809)"/>
    <rect id="Rectangle_69" data-name="Rectangle 69" class="cls-9" width="74.743" height="90.182" transform="translate(25.643 5.993)"/>
    <rect id="Rectangle_70" data-name="Rectangle 70" class="cls-10" width="30.142" height="1.47" transform="translate(54.682 16.163)"/>
    <rect id="Rectangle_71" data-name="Rectangle 71" class="cls-10" width="30.142" height="1.47" transform="translate(54.682 20.819)"/>
    <rect id="Rectangle_72" data-name="Rectangle 72" class="cls-4" width="15.684" height="1.47" transform="translate(61.912 25.475)"/>
    <rect id="Rectangle_73" data-name="Rectangle 73" class="cls-11" width="30.142" height="1.47" transform="translate(54.682 45.692)"/>
    <rect id="Rectangle_74" data-name="Rectangle 74" class="cls-11" width="30.142" height="1.47" transform="translate(54.682 50.348)"/>
    <rect id="Rectangle_75" data-name="Rectangle 75" class="cls-12" width="15.684" height="1.47" transform="translate(61.912 55.004)"/>
    <rect id="Rectangle_76" data-name="Rectangle 76" class="cls-11" width="30.142" height="1.47" transform="translate(54.682 75.222)"/>
    <rect id="Rectangle_77" data-name="Rectangle 77" class="cls-11" width="30.142" height="1.47" transform="translate(54.682 79.878)"/>
    <rect id="Rectangle_78" data-name="Rectangle 78" class="cls-12" width="15.684" height="1.47" transform="translate(61.912 84.534)"/>
    <g id="Group_11" data-name="Group 11" class="cls-2" transform="translate(29.686 42.75)">
      <path id="Path_143" data-name="Path 143" class="cls-10" d="M302.144,381.13a8.293,8.293,0,0,1-2.006,5.422c-.064.075-.13.148-.2.221q-.05.056-.1.11a8.168,8.168,0,0,1-.89.807l-.022.016a8.144,8.144,0,0,1-1.581.97h0a8.216,8.216,0,0,1-.887.355l-.112.036c-.069.023-.14.044-.21.064l-.028.009a8.372,8.372,0,0,1-4.6,0H291.5c-.122-.036-.245-.072-.358-.113l-.1-.037a8.082,8.082,0,0,1-1.152-.51l-.023-.012a8.366,8.366,0,0,1-1.632-1.155l-.04-.038a7.778,7.778,0,0,1-.712-.735c-.029-.033-.058-.067-.086-.1-.054-.064-.105-.13-.157-.2a8.332,8.332,0,1,1,14.912-5.112Z" transform="translate(-285.48 -372.798)"/>
      <path id="Path_144" data-name="Path 144" class="cls-13" d="M312.412,397.086l-.632-.284a2.513,2.513,0,0,0,.012-.289,2.263,2.263,0,0,0,0-.245,5.526,5.526,0,0,0-.763-1.8,5.1,5.1,0,0,1-.5-1.715,8.292,8.292,0,0,0-.27-2.188,3.95,3.95,0,0,0-1.118-1.435A5.673,5.673,0,0,0,307.347,388a3.175,3.175,0,0,0-2.138-.058,4.613,4.613,0,0,0-1.54,1.113,5.177,5.177,0,0,0-.87.99,4.283,4.283,0,0,0-.49,1.5,22.915,22.915,0,0,0-.3,2.5,2.416,2.416,0,0,1-.72,1.923c-.292.209-.7.327-.836.644a.659.659,0,0,0-.044.3,1.1,1.1,0,0,0,.018.254c.009.049.018.1.031.146a10.761,10.761,0,0,0-.431,1.309c-.089.331-.172.656-.245.97h.3l1.142.027h.016l1.225.028h.006l1.142.027h.028l.33.023h.108l4.567.105h.025l.3.007h.107l.914.021h0l1.348.031h.01l1.015.025h.316l-.054-1.064C312.854,397.187,312.412,397.086,312.412,397.086Zm-5.13-.13a3.992,3.992,0,0,1-.966,2.006l-.972-1.323.036-.051.936,1.274a3.986,3.986,0,0,0,.966-2.006,1.057,1.057,0,0,1,.077-.132l.022.069A1.308,1.308,0,0,0,307.281,396.956Zm1.485,3.539a.738.738,0,0,0-.009-.137c-.009-.045-.007-.086-.014-.13s-.011-.087-.017-.131-.015-.087-.023-.131-.017-.087-.027-.131a.2.2,0,0,0-.01-.044q-.02-.086-.044-.173c-.016-.058-.026-.093-.04-.138a.188.188,0,0,0-.02-.061c-.007-.02-.021-.066-.032-.1l-.022-.064c-.01-.028-.02-.058-.031-.086-.018-.051-.038-.1-.058-.153s-.04-.1-.061-.152c-.042-.1-.087-.2-.132-.307-.178-.4-.377-.788-.561-1.175a6.267,6.267,0,0,1-.262-.622l-.023.031a1.309,1.309,0,0,0-.1.165,3.991,3.991,0,0,1-.966,2.006l-.972-1.323-.85,1.225a.992.992,0,0,0-.341.566c-.027.08-.053.168-.077.26-.017.063-.033.122-.048.192-.009.033-.016.066-.023.1l-.022.1v.016c-.015.071-.029.145-.043.219s-.029.161-.043.245q-.015.08-.026.158c-.017.1-.032.2-.047.307-.009.06-.017.123-.025.178l-.029.228c.063.187.132.368.2.556a.874.874,0,0,1,.08.315,8.93,8.93,0,0,0,4.6,0,.041.041,0,0,1,0-.011,1.276,1.276,0,0,1-.029-.312h0a8.062,8.062,0,0,1,.122-.877,3,3,0,0,0,.023-.431v-.051c0-.047,0-.088-.006-.129Zm0,0a.738.738,0,0,0-.009-.137c-.009-.045-.007-.086-.014-.13s-.011-.087-.017-.131-.015-.087-.023-.131-.017-.087-.027-.131a.2.2,0,0,0-.01-.044q-.02-.086-.044-.173c-.016-.058-.026-.093-.04-.138a.188.188,0,0,0-.02-.061c-.007-.02-.021-.066-.032-.1l-.022-.064c-.01-.028-.02-.058-.031-.086-.018-.051-.038-.1-.058-.153s-.04-.1-.061-.152c-.042-.1-.087-.2-.132-.307-.178-.4-.377-.788-.561-1.175a6.267,6.267,0,0,1-.262-.622l-.023.031a1.309,1.309,0,0,0-.1.165,3.991,3.991,0,0,1-.966,2.006l-.972-1.323-.85,1.225a.992.992,0,0,0-.341.566c-.027.08-.053.168-.077.26-.017.063-.033.122-.048.192-.009.033-.016.066-.023.1l-.022.1v.016c-.015.071-.029.145-.043.219s-.029.161-.043.245q-.015.08-.026.158c-.017.1-.032.2-.047.307-.009.06-.017.123-.025.178l-.029.228c.063.187.132.368.2.556a.874.874,0,0,1,.08.315,8.93,8.93,0,0,0,4.6,0,.041.041,0,0,1,0-.011,1.276,1.276,0,0,1-.029-.312h0a8.062,8.062,0,0,1,.122-.877,3,3,0,0,0,.023-.431v-.051c0-.047,0-.088-.006-.129Zm0,0a.738.738,0,0,0-.009-.137c-.009-.045-.007-.086-.014-.13s-.011-.087-.017-.131-.015-.087-.023-.131-.017-.087-.027-.131a.2.2,0,0,0-.01-.044q-.02-.086-.044-.173c-.016-.058-.026-.093-.04-.138a.188.188,0,0,0-.02-.061c-.007-.02-.021-.066-.032-.1l-.022-.064c-.01-.028-.02-.058-.031-.086-.018-.051-.038-.1-.058-.153s-.04-.1-.061-.152c-.042-.1-.087-.2-.132-.307-.178-.4-.377-.788-.561-1.175a6.267,6.267,0,0,1-.262-.622l-.023.031a1.309,1.309,0,0,0-.1.165,3.991,3.991,0,0,1-.966,2.006l-.972-1.323-.85,1.225a.992.992,0,0,0-.341.566c-.027.08-.053.168-.077.26-.017.063-.033.122-.048.192-.009.033-.016.066-.023.1l-.022.1v.016c-.015.071-.029.145-.043.219s-.029.161-.043.245q-.015.08-.026.158c-.017.1-.032.2-.047.307-.009.06-.017.123-.025.178l-.029.228c.063.187.132.368.2.556a.874.874,0,0,1,.08.315,8.93,8.93,0,0,0,4.6,0,.041.041,0,0,1,0-.011,1.276,1.276,0,0,1-.029-.312h0a8.062,8.062,0,0,1,.122-.877,3,3,0,0,0,.023-.431v-.051c0-.047,0-.088-.006-.129Zm0,0a.738.738,0,0,0-.009-.137c-.009-.045-.007-.086-.014-.13s-.011-.087-.017-.131-.015-.087-.023-.131-.017-.087-.027-.131a.2.2,0,0,0-.01-.044q-.02-.086-.044-.173c-.016-.058-.026-.093-.04-.138a.188.188,0,0,0-.02-.061c-.007-.02-.021-.066-.032-.1l-.022-.064c-.01-.028-.02-.058-.031-.086-.018-.051-.038-.1-.058-.153s-.04-.1-.061-.152c-.042-.1-.087-.2-.132-.307-.178-.4-.377-.788-.561-1.175a6.267,6.267,0,0,1-.262-.622l-.023.031a1.309,1.309,0,0,0-.1.165,3.991,3.991,0,0,1-.966,2.006l-.972-1.323-.85,1.225a.992.992,0,0,0-.341.566c-.027.08-.053.168-.077.26-.017.063-.033.122-.048.192-.009.033-.016.066-.023.1l-.022.1v.016c-.015.071-.029.145-.043.219s-.029.161-.043.245q-.015.08-.026.158c-.017.1-.032.2-.047.307-.009.06-.017.123-.025.178l-.029.228c.063.187.132.368.2.556a.874.874,0,0,1,.08.315,8.93,8.93,0,0,0,4.6,0,.041.041,0,0,1,0-.011,1.276,1.276,0,0,1-.029-.312h0a8.062,8.062,0,0,1,.122-.877,3,3,0,0,0,.023-.431v-.051c0-.047,0-.088-.006-.129Z" transform="translate(-298.028 -385.942)"/>
      <rect id="Rectangle_79" data-name="Rectangle 79" class="cls-14" width="5.636" height="3.798" transform="translate(5.146 6.005)"/>
      <path id="Path_145" data-name="Path 145" class="cls-15" d="M333.618,430.676,331.259,434l-2.465-.214s-3.216.213-1.072-2.251a5.29,5.29,0,0,0,1.44-2.877,2.228,2.228,0,0,0-.153-1.2l2.68-.321a2,2,0,0,0-.044,1.119A4.872,4.872,0,0,0,333.618,430.676Z" transform="translate(-321.899 -420.482)"/>
      <path id="Path_146" data-name="Path 146" class="cls-7" d="M346.126,428.238a2.679,2.679,0,0,1-2.482.4,2.228,2.228,0,0,0-.153-1.2l2.68-.321A2,2,0,0,0,346.126,428.238Z" transform="translate(-336.382 -420.464)"/>
      <circle id="Ellipse_23" data-name="Ellipse 23" class="cls-15" cx="2.68" cy="2.68" r="2.68" transform="translate(5.448 2.85)"/>
      <path id="Path_147" data-name="Path 147" class="cls-7" d="M328.462,449.748l-.063-.245-.054-.216-.08-.319-.015-.059-.012-.049s.064-.192-.357-.13l-.078.013c-.066.014-.143.032-.232.056l-.08.025-.105.033h0a2.3,2.3,0,0,0-.89.537,2,2,0,0,0-.3.36c-.009.012-.015.023-.022.033a1.158,1.158,0,0,0-.077.142,4.37,4.37,0,0,1-.966,2.144l-.942-1.361-.018-.027-.224-.326-.08-.105-.027-.037-.49-.658-.123-.164-.04-.055-.06-.08-.141-.187-.551.322-.735.429-.429,2.788v.077l.013.23.089,1.514v.021l-.157.627.023.012a8.082,8.082,0,0,0,1.152.51l.1.037c.122.04.238.077.358.113a.434.434,0,0,1,.01.055v-.053a8.373,8.373,0,0,0,4.6,0l.028-.009c.07-.02.141-.04.21-.064l.112-.036a8.233,8.233,0,0,0,.887-.355l.1-2.193.074-1.582v-.091Z" transform="translate(-316.841 -439.416)"/>
      <path id="Path_148" data-name="Path 148" class="cls-9" d="M327.772,454.6a.85.85,0,0,0-.009-.147c-.009-.049-.007-.092-.014-.138s-.011-.093-.017-.14-.015-.093-.023-.14-.017-.093-.027-.14a.208.208,0,0,0-.01-.047c-.013-.061-.028-.122-.044-.185s-.026-.1-.04-.148a.208.208,0,0,0-.02-.065c-.007-.021-.021-.071-.032-.107l-.022-.069c-.01-.031-.02-.061-.031-.092-.018-.055-.038-.109-.058-.164s-.04-.109-.061-.163c-.042-.11-.087-.219-.132-.328-.178-.424-.377-.842-.561-1.256a6.916,6.916,0,0,1-.262-.665l-.023.033a1.431,1.431,0,0,0-.1.176,4.377,4.377,0,0,1-.966,2.144l-.972-1.415-.85,1.307a1.068,1.068,0,0,0-.341.605c-.027.086-.053.179-.077.278-.017.066-.033.136-.048.206-.009.036-.016.071-.023.108l-.022.112v.017c-.015.076-.029.154-.043.234s-.029.172-.043.259q-.015.085-.026.169c-.017.109-.032.219-.047.328-.009.064-.017.123-.025.19l-.029.245c.063.2.132.4.2.594a.988.988,0,0,1,.08.337,8.371,8.371,0,0,0,4.6,0,.041.041,0,0,1,0-.012,1.459,1.459,0,0,1-.029-.335h0a9.205,9.205,0,0,1,.123-.937,3.438,3.438,0,0,0,.023-.461v-.055C327.775,454.688,327.774,454.644,327.772,454.6Zm0,0a.85.85,0,0,0-.009-.147c-.009-.049-.007-.092-.014-.138s-.011-.093-.017-.14-.015-.093-.023-.14-.017-.093-.027-.14a.208.208,0,0,0-.01-.047c-.013-.061-.028-.122-.044-.185s-.026-.1-.04-.148a.208.208,0,0,0-.02-.065c-.007-.021-.021-.071-.032-.107l-.022-.069c-.01-.031-.02-.061-.031-.092-.018-.055-.038-.109-.058-.164s-.04-.109-.061-.163c-.042-.11-.087-.219-.132-.328-.178-.424-.377-.842-.561-1.256a6.916,6.916,0,0,1-.262-.665l-.023.033a1.431,1.431,0,0,0-.1.176,4.377,4.377,0,0,1-.966,2.144l-.972-1.415-.85,1.307a1.068,1.068,0,0,0-.341.605c-.027.086-.053.179-.077.278-.017.066-.033.136-.048.206-.009.036-.016.071-.023.108l-.022.112v.017c-.015.076-.029.154-.043.234s-.029.172-.043.259q-.015.085-.026.169c-.017.109-.032.219-.047.328-.009.064-.017.123-.025.19l-.029.245c.063.2.132.4.2.594a.988.988,0,0,1,.08.337,8.371,8.371,0,0,0,4.6,0,.041.041,0,0,1,0-.012,1.459,1.459,0,0,1-.029-.335h0a9.205,9.205,0,0,1,.123-.937,3.438,3.438,0,0,0,.023-.461v-.055C327.775,454.688,327.774,454.644,327.772,454.6Zm0,0a.85.85,0,0,0-.009-.147c-.009-.049-.007-.092-.014-.138s-.011-.093-.017-.14-.015-.093-.023-.14-.017-.093-.027-.14a.208.208,0,0,0-.01-.047c-.013-.061-.028-.122-.044-.185s-.026-.1-.04-.148a.208.208,0,0,0-.02-.065c-.007-.021-.021-.071-.032-.107l-.022-.069c-.01-.031-.02-.061-.031-.092-.018-.055-.038-.109-.058-.164s-.04-.109-.061-.163c-.042-.11-.087-.219-.132-.328-.178-.424-.377-.842-.561-1.256a6.916,6.916,0,0,1-.262-.665l-.023.033a1.431,1.431,0,0,0-.1.176,4.377,4.377,0,0,1-.966,2.144l-.972-1.415-.85,1.307a1.068,1.068,0,0,0-.341.605c-.027.086-.053.179-.077.278-.017.066-.033.136-.048.206-.009.036-.016.071-.023.108l-.022.112v.017c-.015.076-.029.154-.043.234s-.029.172-.043.259q-.015.085-.026.169c-.017.109-.032.219-.047.328-.009.064-.017.123-.025.19l-.029.245c.063.2.132.4.2.594a.988.988,0,0,1,.08.337,8.371,8.371,0,0,0,4.6,0,.041.041,0,0,1,0-.012,1.459,1.459,0,0,1-.029-.335h0a9.205,9.205,0,0,1,.123-.937,3.438,3.438,0,0,0,.023-.461v-.055C327.775,454.688,327.774,454.644,327.772,454.6Zm1.3-2.3-.437-1.746-.075-.3-.021-.082h0l-.107-.426a.083.083,0,0,0,0-.011h0a.1.1,0,0,0-.009-.055c-.016-.032-.056-.065-.151-.073a.757.757,0,0,0-.108,0h0a1.871,1.871,0,0,0-.315.059c-.05.014-.1.028-.162.047l-.105.033h-.01a2.337,2.337,0,0,0-.772.429,2.085,2.085,0,0,0-.392.434l-.023.033a1.418,1.418,0,0,0-.1.176,4.376,4.376,0,0,1-.966,2.144l-.972-1.415-.055-.08-.01-.014-.141-.207-.107-.142-.028-.037-.5-.67h0l-.159-.217v-.007l-.055-.075-.105-.14-.368.214-.919.535-.424,2.758v.029l.012.2.091,1.535v.087l-.138.553a8.082,8.082,0,0,0,1.152.51l.1.037c.123.04.238.077.358.113a.445.445,0,0,1,.01.055v-.053a8.373,8.373,0,0,0,4.6,0l.028-.009c.07-.02.141-.04.209-.064l.112-.035a8.216,8.216,0,0,0,.887-.355h0l.1-2.191.073-1.565Zm-6.026,4.231a.445.445,0,0,1,.01.055v-.053Zm4.727-1.931a.85.85,0,0,0-.009-.147c-.009-.049-.007-.092-.014-.138s-.011-.093-.017-.14-.015-.093-.023-.14-.017-.093-.027-.14a.208.208,0,0,0-.01-.047c-.013-.061-.028-.122-.044-.185s-.026-.1-.04-.148a.208.208,0,0,0-.02-.065c-.007-.021-.021-.071-.032-.107l-.022-.069c-.01-.031-.02-.061-.031-.092-.018-.055-.038-.109-.058-.164s-.04-.109-.061-.163c-.042-.11-.087-.219-.132-.328-.178-.424-.377-.842-.561-1.256a6.916,6.916,0,0,1-.262-.665l-.023.033a1.431,1.431,0,0,0-.1.176,4.377,4.377,0,0,1-.966,2.144l-.972-1.415-.85,1.307a1.068,1.068,0,0,0-.341.605c-.027.086-.053.179-.077.278-.017.066-.033.136-.048.206-.009.036-.016.071-.023.108l-.022.112v.017c-.015.076-.029.154-.043.234s-.029.172-.043.259q-.015.085-.026.169c-.017.109-.032.219-.047.328-.009.064-.017.123-.025.19l-.029.245c.063.2.132.4.2.594a.988.988,0,0,1,.08.337,8.371,8.371,0,0,0,4.6,0,.041.041,0,0,1,0-.012,1.459,1.459,0,0,1-.029-.335h0a9.205,9.205,0,0,1,.123-.937,3.438,3.438,0,0,0,.023-.461v-.055C327.775,454.688,327.774,454.644,327.772,454.6Zm0,0a.85.85,0,0,0-.009-.147c-.009-.049-.007-.092-.014-.138s-.011-.093-.017-.14-.015-.093-.023-.14-.017-.093-.027-.14a.208.208,0,0,0-.01-.047c-.013-.061-.028-.122-.044-.185s-.026-.1-.04-.148a.208.208,0,0,0-.02-.065c-.007-.021-.021-.071-.032-.107l-.022-.069c-.01-.031-.02-.061-.031-.092-.018-.055-.038-.109-.058-.164s-.04-.109-.061-.163c-.042-.11-.087-.219-.132-.328-.178-.424-.377-.842-.561-1.256a6.916,6.916,0,0,1-.262-.665l-.023.033a1.431,1.431,0,0,0-.1.176,4.377,4.377,0,0,1-.966,2.144l-.972-1.415-.85,1.307a1.068,1.068,0,0,0-.341.605c-.027.086-.053.179-.077.278-.017.066-.033.136-.048.206-.009.036-.016.071-.023.108l-.022.112v.017c-.015.076-.029.154-.043.234s-.029.172-.043.259q-.015.085-.026.169c-.017.109-.032.219-.047.328-.009.064-.017.123-.025.19l-.029.245c.063.2.132.4.2.594a.988.988,0,0,1,.08.337,8.371,8.371,0,0,0,4.6,0,.041.041,0,0,1,0-.012,1.459,1.459,0,0,1-.029-.335h0a9.205,9.205,0,0,1,.123-.937,3.438,3.438,0,0,0,.023-.461v-.055C327.775,454.688,327.774,454.644,327.772,454.6Zm0,0a.85.85,0,0,0-.009-.147c-.009-.049-.007-.092-.014-.138s-.011-.093-.017-.14-.015-.093-.023-.14-.017-.093-.027-.14a.208.208,0,0,0-.01-.047c-.013-.061-.028-.122-.044-.185s-.026-.1-.04-.148a.208.208,0,0,0-.02-.065c-.007-.021-.021-.071-.032-.107l-.022-.069c-.01-.031-.02-.061-.031-.092-.018-.055-.038-.109-.058-.164s-.04-.109-.061-.163c-.042-.11-.087-.219-.132-.328-.178-.424-.377-.842-.561-1.256a6.916,6.916,0,0,1-.262-.665l-.023.033a1.431,1.431,0,0,0-.1.176,4.377,4.377,0,0,1-.966,2.144l-.972-1.415-.85,1.307a1.068,1.068,0,0,0-.341.605c-.027.086-.053.179-.077.278-.017.066-.033.136-.048.206-.009.036-.016.071-.023.108l-.022.112v.017c-.015.076-.029.154-.043.234s-.029.172-.043.259q-.015.085-.026.169c-.017.109-.032.219-.047.328-.009.064-.017.123-.025.19l-.029.245c.063.2.132.4.2.594a.988.988,0,0,1,.08.337,8.371,8.371,0,0,0,4.6,0,.041.041,0,0,1,0-.012,1.459,1.459,0,0,1-.029-.335h0a9.205,9.205,0,0,1,.123-.937,3.438,3.438,0,0,0,.023-.461v-.055C327.775,454.688,327.774,454.644,327.772,454.6Zm0,0a.85.85,0,0,0-.009-.147c-.009-.049-.007-.092-.014-.138s-.011-.093-.017-.14-.015-.093-.023-.14-.017-.093-.027-.14a.208.208,0,0,0-.01-.047c-.013-.061-.028-.122-.044-.185s-.026-.1-.04-.148a.208.208,0,0,0-.02-.065c-.007-.021-.021-.071-.032-.107l-.022-.069c-.01-.031-.02-.061-.031-.092-.018-.055-.038-.109-.058-.164s-.04-.109-.061-.163c-.042-.11-.087-.219-.132-.328-.178-.424-.377-.842-.561-1.256a6.916,6.916,0,0,1-.262-.665l-.023.033a1.431,1.431,0,0,0-.1.176,4.377,4.377,0,0,1-.966,2.144l-.972-1.415-.85,1.307a1.068,1.068,0,0,0-.341.605c-.027.086-.053.179-.077.278-.017.066-.033.136-.048.206-.009.036-.016.071-.023.108l-.022.112v.017c-.015.076-.029.154-.043.234s-.029.172-.043.259q-.015.085-.026.169c-.017.109-.032.219-.047.328-.009.064-.017.123-.025.19l-.029.245c.063.2.132.4.2.594a.988.988,0,0,1,.08.337,8.371,8.371,0,0,0,4.6,0,.041.041,0,0,1,0-.012,1.459,1.459,0,0,1-.029-.335h0a9.205,9.205,0,0,1,.123-.937,3.438,3.438,0,0,0,.023-.461v-.055C327.775,454.688,327.774,454.644,327.772,454.6Zm0,0a.85.85,0,0,0-.009-.147c-.009-.049-.007-.092-.014-.138s-.011-.093-.017-.14-.015-.093-.023-.14-.017-.093-.027-.14a.208.208,0,0,0-.01-.047c-.013-.061-.028-.122-.044-.185s-.026-.1-.04-.148a.208.208,0,0,0-.02-.065c-.007-.021-.021-.071-.032-.107l-.022-.069c-.01-.031-.02-.061-.031-.092-.018-.055-.038-.109-.058-.164s-.04-.109-.061-.163c-.042-.11-.087-.219-.132-.328-.178-.424-.377-.842-.561-1.256a6.916,6.916,0,0,1-.262-.665l-.023.033a1.431,1.431,0,0,0-.1.176,4.377,4.377,0,0,1-.966,2.144l-.972-1.415-.85,1.307a1.068,1.068,0,0,0-.341.605c-.027.086-.053.179-.077.278-.017.066-.033.136-.048.206-.009.036-.016.071-.023.108l-.022.112v.017c-.015.076-.029.154-.043.234s-.029.172-.043.259q-.015.085-.026.169c-.017.109-.032.219-.047.328-.009.064-.017.123-.025.19l-.029.245c.063.2.132.4.2.594a.988.988,0,0,1,.08.337,8.371,8.371,0,0,0,4.6,0,.041.041,0,0,1,0-.012,1.459,1.459,0,0,1-.029-.335h0a9.205,9.205,0,0,1,.123-.937,3.438,3.438,0,0,0,.023-.461v-.055C327.775,454.688,327.774,454.644,327.772,454.6Zm0,0a.85.85,0,0,0-.009-.147c-.009-.049-.007-.092-.014-.138s-.011-.093-.017-.14-.015-.093-.023-.14-.017-.093-.027-.14a.208.208,0,0,0-.01-.047c-.013-.061-.028-.122-.044-.185s-.026-.1-.04-.148a.208.208,0,0,0-.02-.065c-.007-.021-.021-.071-.032-.107l-.022-.069c-.01-.031-.02-.061-.031-.092-.018-.055-.038-.109-.058-.164s-.04-.109-.061-.163c-.042-.11-.087-.219-.132-.328-.178-.424-.377-.842-.561-1.256a6.916,6.916,0,0,1-.262-.665l-.023.033a1.431,1.431,0,0,0-.1.176,4.377,4.377,0,0,1-.966,2.144l-.972-1.415-.85,1.307a1.068,1.068,0,0,0-.341.605c-.027.086-.053.179-.077.278-.017.066-.033.136-.048.206-.009.036-.016.071-.023.108l-.022.112v.017c-.015.076-.029.154-.043.234s-.029.172-.043.259q-.015.085-.026.169c-.017.109-.032.219-.047.328-.009.064-.017.123-.025.19l-.029.245c.063.2.132.4.2.594a.988.988,0,0,1,.08.337,8.371,8.371,0,0,0,4.6,0,.041.041,0,0,1,0-.012,1.459,1.459,0,0,1-.029-.335h0a9.205,9.205,0,0,1,.123-.937,3.438,3.438,0,0,0,.023-.461v-.055C327.775,454.688,327.774,454.644,327.772,454.6Zm0,0a.85.85,0,0,0-.009-.147c-.009-.049-.007-.092-.014-.138s-.011-.093-.017-.14-.015-.093-.023-.14-.017-.093-.027-.14a.208.208,0,0,0-.01-.047c-.013-.061-.028-.122-.044-.185s-.026-.1-.04-.148a.208.208,0,0,0-.02-.065c-.007-.021-.021-.071-.032-.107l-.022-.069c-.01-.031-.02-.061-.031-.092-.018-.055-.038-.109-.058-.164s-.04-.109-.061-.163c-.042-.11-.087-.219-.132-.328-.178-.424-.377-.842-.561-1.256a6.916,6.916,0,0,1-.262-.665l-.023.033a1.431,1.431,0,0,0-.1.176,4.377,4.377,0,0,1-.966,2.144l-.972-1.415-.85,1.307a1.068,1.068,0,0,0-.341.605c-.027.086-.053.179-.077.278-.017.066-.033.136-.048.206-.009.036-.016.071-.023.108l-.022.112v.017c-.015.076-.029.154-.043.234s-.029.172-.043.259q-.015.085-.026.169c-.017.109-.032.219-.047.328-.009.064-.017.123-.025.19l-.029.245c.063.2.132.4.2.594a.988.988,0,0,1,.08.337,8.371,8.371,0,0,0,4.6,0,.041.041,0,0,1,0-.012,1.459,1.459,0,0,1-.029-.335h0a9.205,9.205,0,0,1,.123-.937,3.438,3.438,0,0,0,.023-.461v-.055C327.775,454.688,327.774,454.644,327.772,454.6Zm0,0a.85.85,0,0,0-.009-.147c-.009-.049-.007-.092-.014-.138s-.011-.093-.017-.14-.015-.093-.023-.14-.017-.093-.027-.14a.208.208,0,0,0-.01-.047c-.013-.061-.028-.122-.044-.185s-.026-.1-.04-.148a.208.208,0,0,0-.02-.065c-.007-.021-.021-.071-.032-.107l-.022-.069c-.01-.031-.02-.061-.031-.092-.018-.055-.038-.109-.058-.164s-.04-.109-.061-.163c-.042-.11-.087-.219-.132-.328-.178-.424-.377-.842-.561-1.256a6.916,6.916,0,0,1-.262-.665l-.023.033a1.431,1.431,0,0,0-.1.176,4.377,4.377,0,0,1-.966,2.144l-.972-1.415-.85,1.307a1.068,1.068,0,0,0-.341.605c-.027.086-.053.179-.077.278-.017.066-.033.136-.048.206-.009.036-.016.071-.023.108l-.022.112v.017c-.015.076-.029.154-.043.234s-.029.172-.043.259q-.015.085-.026.169c-.017.109-.032.219-.047.328-.009.064-.017.123-.025.19l-.029.245c.063.2.132.4.2.594a.988.988,0,0,1,.08.337,8.371,8.371,0,0,0,4.6,0,.041.041,0,0,1,0-.012,1.459,1.459,0,0,1-.029-.335h0a9.205,9.205,0,0,1,.123-.937,3.438,3.438,0,0,0,.023-.461v-.055C327.775,454.688,327.774,454.644,327.772,454.6Z" transform="translate(-317.034 -440.193)"/>
      <path id="Path_149" data-name="Path 149" class="cls-7" d="M307.064,451.687l-.082-.011a2.989,2.989,0,0,1-.368-.074l-.045-.012c-.3-.085-.626-.236-.7-.5a.477.477,0,0,1,.007-.261,2.237,2.237,0,0,1,.167-.421V450.4a.577.577,0,0,1,.031-.055,1.225,1.225,0,0,1,.442-.482l-.147.023-1.245.2-1.93.311s-.343-.069-.81,1.218a.2.2,0,0,1-.016.048c-.113.315-.232.708-.354,1.2-.085.341-.162.675-.233,1-.021.1-.042.195-.061.29a7.786,7.786,0,0,0,.712.735l.04.038a8.366,8.366,0,0,0,1.632,1.155l.023.012a8.079,8.079,0,0,0,1.152.51l.1.037c.022-.227.047-.478.076-.735a.209.209,0,0,1,.01-.077l.029-.245c.007-.062.016-.123.025-.19.015-.109.029-.219.047-.328q.011-.085.026-.169c.013-.087.028-.174.043-.258s.028-.158.043-.234v-.017l.022-.112c.007-.037.015-.072.023-.108.015-.07.031-.14.048-.206.025-.1.05-.192.077-.278a1.047,1.047,0,0,1,.341-.605l.85-1.307.036-.055.016-.025Z" transform="translate(-299.73 -440.418)"/>
      <path id="Path_150" data-name="Path 150" class="cls-16" d="M306.377,451.707l-.9,1.387a1.036,1.036,0,0,0-.334.587c-.028.091-.056.19-.083.294a14.682,14.682,0,0,0-.277,1.6.191.191,0,0,1-.01.074c-.042.341-.076.675-.1.97a8.081,8.081,0,0,1-1.152-.51l-.023-.012a8.365,8.365,0,0,1-1.632-1.155l-.04-.038a7.785,7.785,0,0,1-.712-.735c-.029-.033-.058-.067-.086-.1.013-.064.027-.123.042-.191.07-.325.147-.658.232-1a12.073,12.073,0,0,1,.417-1.372.363.363,0,0,1,.016-.039c.434-1.116.746-1.054.746-1.054l2.038-.328,1.287-.208-.04.023a1.3,1.3,0,0,0-.354.377l-.036.06c-.015.023-.028.049-.043.075a2.175,2.175,0,0,0-.169.429.451.451,0,0,0,.029.35,1.167,1.167,0,0,0,.756.439l.048.012A3.079,3.079,0,0,0,306.377,451.707Z" transform="translate(-299.116 -440.435)"/>
      <path id="Path_151" data-name="Path 151" class="cls-7" d="M375.311,451.946l-.05-1.088c.214-1.715-.214-1.822-.214-1.822l-.51-.245h-.013l-2.05-.994-.08-.039-.024-.011h0l-.267-.13h0l-.169-.082-.316-.153-.107-.051v.425c0,.123.011.266.021.432.022.419.063.98.135,1.642.04.383.092.8.156,1.252.038.266.065.531.082.789a13.882,13.882,0,0,1-.081,2.61l.112-.036a8.227,8.227,0,0,0,.887-.355h0a8.146,8.146,0,0,0,1.581-.97l.022-.016a8.176,8.176,0,0,0,.89-.807Z" transform="translate(-360.969 -438.198)"/>
      <path id="Path_152" data-name="Path 152" class="cls-16" d="M376.173,451.9l-.05-1.091c.214-1.715-.214-1.822-.214-1.822l-.613-.3h-.012l-2.056-1-.094-.045-.018-.009-.151-.073-.2-.1-.395-.191v.174h0v.216c0,.122.011.283.022.466.021.391.057.9.122,1.512.044.418.1.882.172,1.382q.056.4.081.793a13.869,13.869,0,0,1-.076,2.573,8.22,8.22,0,0,0,.887-.355h0a8.143,8.143,0,0,0,1.581-.97l.022-.016a8.175,8.175,0,0,0,.89-.807q.054-.054.1-.11Z" transform="translate(-361.723 -438.154)"/>
      <path id="Path_153" data-name="Path 153" class="cls-7" d="M317.984,390.867a1.784,1.784,0,0,0-.168.613c-.131.479-.651.779-.769,1.262-.07.282.011.581-.037.867-.087.528-.57.886-.839,1.348a1.818,1.818,0,0,0-.111,1.581,2.533,2.533,0,0,1,.156.4,1.46,1.46,0,0,1-.038.613,1.941,1.941,0,0,0,.025,1.31,1.253,1.253,0,0,0,.918.588,3.569,3.569,0,0,0,1.124-.051,3.252,3.252,0,0,0,1.174-.343l-1.327-3.2a2.675,2.675,0,0,1-.27-1.008,2.218,2.218,0,0,1,.165-.752,6.519,6.519,0,0,1,1.1-1.905c.192.223.178.562.338.81a1.278,1.278,0,0,0,.547.408,18.1,18.1,0,0,0,1.935.809.254.254,0,0,1,.189.377l-.5,2.063a1.6,1.6,0,0,0,.076,1.348c.283.368.921.542.925,1.016a1.625,1.625,0,0,0,0,.225c.033.222.3.328.521.339a1.552,1.552,0,0,0,1.557-1.271c.123-.811-.414-1.559-.638-2.349-.377-1.329.122-2.889-.619-4.057a3.453,3.453,0,0,0-2.734-1.322C319.956,390.5,318.5,390.19,317.984,390.867Z" transform="translate(-312.198 -388.277)"/>
      <path id="Path_154" data-name="Path 154" class="cls-14" d="M317.984,389.867a1.784,1.784,0,0,0-.168.613c-.131.479-.651.779-.769,1.262-.07.282.011.581-.037.867-.087.528-.57.886-.839,1.348a1.818,1.818,0,0,0-.111,1.581,2.533,2.533,0,0,1,.156.4,1.46,1.46,0,0,1-.038.613,1.941,1.941,0,0,0,.025,1.31,1.253,1.253,0,0,0,.918.588,3.569,3.569,0,0,0,1.124-.051,3.252,3.252,0,0,0,1.174-.343l-1.327-3.2a2.675,2.675,0,0,1-.27-1.008,2.218,2.218,0,0,1,.165-.752,6.518,6.518,0,0,1,1.1-1.905c.192.223.178.562.338.81a1.278,1.278,0,0,0,.547.408,18.116,18.116,0,0,0,1.935.809.254.254,0,0,1,.189.377l-.5,2.063a1.6,1.6,0,0,0,.076,1.348c.283.368.921.542.925,1.016a1.625,1.625,0,0,0,0,.225c.033.222.3.328.521.339a1.552,1.552,0,0,0,1.557-1.271c.123-.811-.414-1.559-.638-2.349-.377-1.329.122-2.889-.619-4.057a3.453,3.453,0,0,0-2.734-1.322C319.956,389.5,318.5,389.19,317.984,389.867Z" transform="translate(-312.198 -387.399)"/>
    </g>
    <g id="Group_12" data-name="Group 12" class="cls-2" transform="translate(29.686 72.28)">
      <path id="Path_155" data-name="Path 155" class="cls-10" d="M302.144,622.13a8.293,8.293,0,0,1-2.006,5.422c-.064.075-.13.148-.2.221q-.05.056-.1.11a8.169,8.169,0,0,1-.89.807l-.022.016a8.141,8.141,0,0,1-1.581.97h0a8.2,8.2,0,0,1-.887.355l-.112.036c-.069.023-.14.044-.21.064l-.028.009a8.373,8.373,0,0,1-4.6,0H291.5c-.122-.036-.245-.072-.358-.113l-.1-.037a8.089,8.089,0,0,1-1.152-.51l-.023-.012a8.363,8.363,0,0,1-1.632-1.155l-.04-.038a7.794,7.794,0,0,1-.712-.735c-.029-.033-.058-.067-.086-.1-.054-.064-.105-.13-.157-.2a8.332,8.332,0,1,1,14.912-5.112Z" transform="translate(-285.48 -613.798)"/>
      <path id="Path_156" data-name="Path 156" class="cls-17" d="M313.548,638.935l-.05-1.1c.214-1.744-.214-1.853-.214-1.853l-.613-.3-.012-.006-2.056-1.013-.094-.047-.012-.05s.04-.122-.163-.143a.746.746,0,0,1-.052-.312,1.34,1.34,0,0,1,.337-.613,2.516,2.516,0,0,0,.4-1.785,4.2,4.2,0,0,0-.684-1.725l-.039-.057a2.077,2.077,0,0,0,.072-.542c0-1.41-1.426-2.553-3.186-2.553a3.053,3.053,0,0,0-3.15,2.171,1.113,1.113,0,0,0-.1.152c-.323.605.176,1.057.192,1.661a2.149,2.149,0,0,1-.49,1.126,1.126,1.126,0,0,0-.158,1.17c.075.115.187.2.255.322.236.418-.157.9-.3,1.355a1.3,1.3,0,0,0-.039.163l-.946.154s-.312-.064-.746,1.071a.374.374,0,0,0-.016.04,12.414,12.414,0,0,0-.417,1.4q-.127.518-.232,1.013c-.015.065-.028.13-.042.195.028.034.056.07.086.1a7.859,7.859,0,0,0,.712.75l.04.039a8.363,8.363,0,0,0,1.632,1.175l.023.012a8.02,8.02,0,0,0,1.152.518l.1.037c.123.042.238.078.358.115a.445.445,0,0,1,.01.056v-.054a8.244,8.244,0,0,0,4.6,0l.028-.009c.07-.02.141-.042.21-.065l.111-.035a8.261,8.261,0,0,0,2.468-1.348l.022-.016a8.214,8.214,0,0,0,.89-.821q.054-.054.1-.111Z" transform="translate(-299.098 -625.233)"/>
      <path id="Path_157" data-name="Path 157" class="cls-16" d="M321.123,645.806a2.062,2.062,0,0,1-.49,1.1,1.091,1.091,0,0,0-.158,1.151c.075.113.188.2.255.317.236.41-.157.882-.3,1.333a1.674,1.674,0,0,0,.375,1.526,4.062,4.062,0,0,0,1.314.959,11.726,11.726,0,0,0,3.249,1.157,3.11,3.11,0,0,0,1.782-.08,1.894,1.894,0,0,0,1.07-2.083,11.85,11.85,0,0,0-.858-1.772.829.829,0,0,1-.081-.384,1.3,1.3,0,0,1,.337-.6,2.45,2.45,0,0,0,.4-1.744,4.092,4.092,0,0,0-.684-1.7,1.859,1.859,0,0,0-.49-.539,2.152,2.152,0,0,0-.917-.277c-1.331-.186-2.709-.39-4.051-.458a.869.869,0,0,0-.945.458C320.608,644.767,321.107,645.212,321.123,645.806Z" transform="translate(-316.091 -640.048)"/>
      <path id="Path_158" data-name="Path 158" class="cls-15" d="M337.978,671.389l-2.525,3.591-2.465-.214s-.081.858-1.072-2.251c-.554-1.739.572-1.135.794-1.616s.613-.907.646-1.262a2.228,2.228,0,0,0-.153-1.2l2.68-.321a2,2,0,0,0-.044,1.119C336.173,670.633,337.978,671.389,337.978,671.389Z" transform="translate(-326.092 -661.464)"/>
      <ellipse id="Ellipse_24" data-name="Ellipse 24" class="cls-16" cx="3.186" cy="2.512" rx="3.186" ry="2.512" transform="translate(4.901 1.839)"/>
      <path id="Path_159" data-name="Path 159" class="cls-7" d="M346.126,669.237a2.679,2.679,0,0,1-2.482.4,2.228,2.228,0,0,0-.153-1.2l2.68-.321a2,2,0,0,0-.044,1.117Z" transform="translate(-336.382 -661.464)"/>
      <circle id="Ellipse_25" data-name="Ellipse 25" class="cls-15" cx="2.68" cy="2.68" r="2.68" transform="translate(5.448 2.85)"/>
      <path id="Path_160" data-name="Path 160" class="cls-7" d="M328.462,690.748l-.063-.245-.054-.216-.08-.318-.015-.059-.012-.049s.064-.192-.357-.13l-.078.013c-.066.014-.143.032-.232.056l-.08.025-.105.033h0a2.3,2.3,0,0,0-.89.537,2,2,0,0,0-.3.36c-.009.012-.015.023-.022.033a1.157,1.157,0,0,0-.077.142,4.369,4.369,0,0,1-.966,2.144l-.942-1.361-.018-.027-.224-.326-.08-.105-.027-.037-.49-.658-.123-.164-.04-.055-.06-.08-.141-.187-.551.322-.735.429-.429,2.788v.077l.013.23.089,1.515v.021l-.157.627.023.012a8.069,8.069,0,0,0,1.152.51l.1.037c.122.041.238.077.358.113a.435.435,0,0,1,.01.055v-.053a8.375,8.375,0,0,0,4.6,0l.028-.009c.07-.02.141-.041.21-.064l.112-.036a8.22,8.22,0,0,0,.887-.355l.1-2.193.074-1.582v-.091Z" transform="translate(-316.841 -680.416)"/>
      <path id="Path_161" data-name="Path 161" class="cls-16" d="M327.772,695.6a.851.851,0,0,0-.009-.147c-.009-.049-.007-.092-.014-.138s-.011-.093-.017-.14-.015-.093-.023-.14-.017-.093-.027-.14a.208.208,0,0,0-.01-.047c-.013-.061-.028-.123-.044-.185s-.026-.1-.04-.148a.209.209,0,0,0-.02-.065c-.007-.021-.021-.071-.032-.107l-.022-.069c-.01-.031-.02-.061-.031-.092-.018-.055-.038-.109-.058-.164s-.04-.109-.061-.163c-.042-.11-.087-.219-.132-.328-.178-.424-.377-.842-.561-1.256a6.916,6.916,0,0,1-.262-.665l-.023.033a1.433,1.433,0,0,0-.1.177,4.376,4.376,0,0,1-.966,2.144l-.972-1.415-.85,1.307a1.068,1.068,0,0,0-.341.605c-.027.086-.053.179-.077.278-.017.066-.033.136-.048.206-.009.036-.016.071-.023.108l-.022.112v.017c-.015.076-.029.154-.043.234s-.029.172-.043.259q-.015.084-.026.169c-.017.109-.032.219-.047.328-.009.064-.017.123-.025.19l-.029.245c.063.2.132.4.2.594a.988.988,0,0,1,.08.337,8.372,8.372,0,0,0,4.6,0,.041.041,0,0,1,0-.012,1.46,1.46,0,0,1-.029-.335h0a9.213,9.213,0,0,1,.123-.937,3.435,3.435,0,0,0,.023-.461v-.055C327.775,695.688,327.774,695.644,327.772,695.6Zm0,0a.851.851,0,0,0-.009-.147c-.009-.049-.007-.092-.014-.138s-.011-.093-.017-.14-.015-.093-.023-.14-.017-.093-.027-.14a.208.208,0,0,0-.01-.047c-.013-.061-.028-.123-.044-.185s-.026-.1-.04-.148a.209.209,0,0,0-.02-.065c-.007-.021-.021-.071-.032-.107l-.022-.069c-.01-.031-.02-.061-.031-.092-.018-.055-.038-.109-.058-.164s-.04-.109-.061-.163c-.042-.11-.087-.219-.132-.328-.178-.424-.377-.842-.561-1.256a6.916,6.916,0,0,1-.262-.665l-.023.033a1.433,1.433,0,0,0-.1.177,4.376,4.376,0,0,1-.966,2.144l-.972-1.415-.85,1.307a1.068,1.068,0,0,0-.341.605c-.027.086-.053.179-.077.278-.017.066-.033.136-.048.206-.009.036-.016.071-.023.108l-.022.112v.017c-.015.076-.029.154-.043.234s-.029.172-.043.259q-.015.084-.026.169c-.017.109-.032.219-.047.328-.009.064-.017.123-.025.19l-.029.245c.063.2.132.4.2.594a.988.988,0,0,1,.08.337,8.372,8.372,0,0,0,4.6,0,.041.041,0,0,1,0-.012,1.46,1.46,0,0,1-.029-.335h0a9.213,9.213,0,0,1,.123-.937,3.435,3.435,0,0,0,.023-.461v-.055C327.775,695.688,327.774,695.644,327.772,695.6Zm0,0a.851.851,0,0,0-.009-.147c-.009-.049-.007-.092-.014-.138s-.011-.093-.017-.14-.015-.093-.023-.14-.017-.093-.027-.14a.208.208,0,0,0-.01-.047c-.013-.061-.028-.123-.044-.185s-.026-.1-.04-.148a.209.209,0,0,0-.02-.065c-.007-.021-.021-.071-.032-.107l-.022-.069c-.01-.031-.02-.061-.031-.092-.018-.055-.038-.109-.058-.164s-.04-.109-.061-.163c-.042-.11-.087-.219-.132-.328-.178-.424-.377-.842-.561-1.256a6.916,6.916,0,0,1-.262-.665l-.023.033a1.433,1.433,0,0,0-.1.177,4.376,4.376,0,0,1-.966,2.144l-.972-1.415-.85,1.307a1.068,1.068,0,0,0-.341.605c-.027.086-.053.179-.077.278-.017.066-.033.136-.048.206-.009.036-.016.071-.023.108l-.022.112v.017c-.015.076-.029.154-.043.234s-.029.172-.043.259q-.015.084-.026.169c-.017.109-.032.219-.047.328-.009.064-.017.123-.025.19l-.029.245c.063.2.132.4.2.594a.988.988,0,0,1,.08.337,8.372,8.372,0,0,0,4.6,0,.041.041,0,0,1,0-.012,1.46,1.46,0,0,1-.029-.335h0a9.213,9.213,0,0,1,.123-.937,3.435,3.435,0,0,0,.023-.461v-.055C327.775,695.688,327.774,695.644,327.772,695.6Zm1.3-2.3-.437-1.746-.075-.3-.021-.082h0l-.107-.426a.082.082,0,0,0,0-.011h0a.1.1,0,0,0-.009-.055c-.016-.032-.056-.065-.151-.074a.757.757,0,0,0-.108,0h0a1.865,1.865,0,0,0-.315.059c-.05.013-.1.028-.162.047l-.105.033h-.01a2.333,2.333,0,0,0-.772.429,2.082,2.082,0,0,0-.392.434l-.023.033a1.414,1.414,0,0,0-.1.177,4.376,4.376,0,0,1-.966,2.144l-.972-1.415-.055-.08-.01-.013-.141-.207-.107-.142-.028-.037-.5-.67h0l-.159-.217v-.007l-.055-.075-.105-.14-.368.214-.919.536-.424,2.758v.029l.012.2.091,1.535v.087l-.138.553a8.082,8.082,0,0,0,1.152.51l.1.037c.123.041.238.077.358.113a.44.44,0,0,1,.01.055v-.053a8.372,8.372,0,0,0,4.6,0l.028-.009c.07-.02.141-.04.209-.064l.112-.036a8.216,8.216,0,0,0,.887-.355h0l.1-2.191.073-1.565Zm-6.026,4.231a.44.44,0,0,1,.01.055v-.053Zm4.727-1.931a.851.851,0,0,0-.009-.147c-.009-.049-.007-.092-.014-.138s-.011-.093-.017-.14-.015-.093-.023-.14-.017-.093-.027-.14a.208.208,0,0,0-.01-.047c-.013-.061-.028-.123-.044-.185s-.026-.1-.04-.148a.209.209,0,0,0-.02-.065c-.007-.021-.021-.071-.032-.107l-.022-.069c-.01-.031-.02-.061-.031-.092-.018-.055-.038-.109-.058-.164s-.04-.109-.061-.163c-.042-.11-.087-.219-.132-.328-.178-.424-.377-.842-.561-1.256a6.916,6.916,0,0,1-.262-.665l-.023.033a1.433,1.433,0,0,0-.1.177,4.376,4.376,0,0,1-.966,2.144l-.972-1.415-.85,1.307a1.068,1.068,0,0,0-.341.605c-.027.086-.053.179-.077.278-.017.066-.033.136-.048.206-.009.036-.016.071-.023.108l-.022.112v.017c-.015.076-.029.154-.043.234s-.029.172-.043.259q-.015.084-.026.169c-.017.109-.032.219-.047.328-.009.064-.017.123-.025.19l-.029.245c.063.2.132.4.2.594a.988.988,0,0,1,.08.337,8.372,8.372,0,0,0,4.6,0,.041.041,0,0,1,0-.012,1.46,1.46,0,0,1-.029-.335h0a9.213,9.213,0,0,1,.123-.937,3.435,3.435,0,0,0,.023-.461v-.055C327.775,695.688,327.774,695.644,327.772,695.6Zm0,0a.851.851,0,0,0-.009-.147c-.009-.049-.007-.092-.014-.138s-.011-.093-.017-.14-.015-.093-.023-.14-.017-.093-.027-.14a.208.208,0,0,0-.01-.047c-.013-.061-.028-.123-.044-.185s-.026-.1-.04-.148a.209.209,0,0,0-.02-.065c-.007-.021-.021-.071-.032-.107l-.022-.069c-.01-.031-.02-.061-.031-.092-.018-.055-.038-.109-.058-.164s-.04-.109-.061-.163c-.042-.11-.087-.219-.132-.328-.178-.424-.377-.842-.561-1.256a6.916,6.916,0,0,1-.262-.665l-.023.033a1.433,1.433,0,0,0-.1.177,4.376,4.376,0,0,1-.966,2.144l-.972-1.415-.85,1.307a1.068,1.068,0,0,0-.341.605c-.027.086-.053.179-.077.278-.017.066-.033.136-.048.206-.009.036-.016.071-.023.108l-.022.112v.017c-.015.076-.029.154-.043.234s-.029.172-.043.259q-.015.084-.026.169c-.017.109-.032.219-.047.328-.009.064-.017.123-.025.19l-.029.245c.063.2.132.4.2.594a.988.988,0,0,1,.08.337,8.372,8.372,0,0,0,4.6,0,.041.041,0,0,1,0-.012,1.46,1.46,0,0,1-.029-.335h0a9.213,9.213,0,0,1,.123-.937,3.435,3.435,0,0,0,.023-.461v-.055C327.775,695.688,327.774,695.644,327.772,695.6Zm0,0a.851.851,0,0,0-.009-.147c-.009-.049-.007-.092-.014-.138s-.011-.093-.017-.14-.015-.093-.023-.14-.017-.093-.027-.14a.208.208,0,0,0-.01-.047c-.013-.061-.028-.123-.044-.185s-.026-.1-.04-.148a.209.209,0,0,0-.02-.065c-.007-.021-.021-.071-.032-.107l-.022-.069c-.01-.031-.02-.061-.031-.092-.018-.055-.038-.109-.058-.164s-.04-.109-.061-.163c-.042-.11-.087-.219-.132-.328-.178-.424-.377-.842-.561-1.256a6.916,6.916,0,0,1-.262-.665l-.023.033a1.433,1.433,0,0,0-.1.177,4.376,4.376,0,0,1-.966,2.144l-.972-1.415-.85,1.307a1.068,1.068,0,0,0-.341.605c-.027.086-.053.179-.077.278-.017.066-.033.136-.048.206-.009.036-.016.071-.023.108l-.022.112v.017c-.015.076-.029.154-.043.234s-.029.172-.043.259q-.015.084-.026.169c-.017.109-.032.219-.047.328-.009.064-.017.123-.025.19l-.029.245c.063.2.132.4.2.594a.988.988,0,0,1,.08.337,8.372,8.372,0,0,0,4.6,0,.041.041,0,0,1,0-.012,1.46,1.46,0,0,1-.029-.335h0a9.213,9.213,0,0,1,.123-.937,3.435,3.435,0,0,0,.023-.461v-.055C327.775,695.688,327.774,695.644,327.772,695.6Zm0,0a.851.851,0,0,0-.009-.147c-.009-.049-.007-.092-.014-.138s-.011-.093-.017-.14-.015-.093-.023-.14-.017-.093-.027-.14a.208.208,0,0,0-.01-.047c-.013-.061-.028-.123-.044-.185s-.026-.1-.04-.148a.209.209,0,0,0-.02-.065c-.007-.021-.021-.071-.032-.107l-.022-.069c-.01-.031-.02-.061-.031-.092-.018-.055-.038-.109-.058-.164s-.04-.109-.061-.163c-.042-.11-.087-.219-.132-.328-.178-.424-.377-.842-.561-1.256a6.916,6.916,0,0,1-.262-.665l-.023.033a1.433,1.433,0,0,0-.1.177,4.376,4.376,0,0,1-.966,2.144l-.972-1.415-.85,1.307a1.068,1.068,0,0,0-.341.605c-.027.086-.053.179-.077.278-.017.066-.033.136-.048.206-.009.036-.016.071-.023.108l-.022.112v.017c-.015.076-.029.154-.043.234s-.029.172-.043.259q-.015.084-.026.169c-.017.109-.032.219-.047.328-.009.064-.017.123-.025.19l-.029.245c.063.2.132.4.2.594a.988.988,0,0,1,.08.337,8.372,8.372,0,0,0,4.6,0,.041.041,0,0,1,0-.012,1.46,1.46,0,0,1-.029-.335h0a9.213,9.213,0,0,1,.123-.937,3.435,3.435,0,0,0,.023-.461v-.055C327.775,695.688,327.774,695.644,327.772,695.6Zm0,0a.851.851,0,0,0-.009-.147c-.009-.049-.007-.092-.014-.138s-.011-.093-.017-.14-.015-.093-.023-.14-.017-.093-.027-.14a.208.208,0,0,0-.01-.047c-.013-.061-.028-.123-.044-.185s-.026-.1-.04-.148a.209.209,0,0,0-.02-.065c-.007-.021-.021-.071-.032-.107l-.022-.069c-.01-.031-.02-.061-.031-.092-.018-.055-.038-.109-.058-.164s-.04-.109-.061-.163c-.042-.11-.087-.219-.132-.328-.178-.424-.377-.842-.561-1.256a6.916,6.916,0,0,1-.262-.665l-.023.033a1.433,1.433,0,0,0-.1.177,4.376,4.376,0,0,1-.966,2.144l-.972-1.415-.85,1.307a1.068,1.068,0,0,0-.341.605c-.027.086-.053.179-.077.278-.017.066-.033.136-.048.206-.009.036-.016.071-.023.108l-.022.112v.017c-.015.076-.029.154-.043.234s-.029.172-.043.259q-.015.084-.026.169c-.017.109-.032.219-.047.328-.009.064-.017.123-.025.19l-.029.245c.063.2.132.4.2.594a.988.988,0,0,1,.08.337,8.372,8.372,0,0,0,4.6,0,.041.041,0,0,1,0-.012,1.46,1.46,0,0,1-.029-.335h0a9.213,9.213,0,0,1,.123-.937,3.435,3.435,0,0,0,.023-.461v-.055C327.775,695.688,327.774,695.644,327.772,695.6Zm0,0a.851.851,0,0,0-.009-.147c-.009-.049-.007-.092-.014-.138s-.011-.093-.017-.14-.015-.093-.023-.14-.017-.093-.027-.14a.208.208,0,0,0-.01-.047c-.013-.061-.028-.123-.044-.185s-.026-.1-.04-.148a.209.209,0,0,0-.02-.065c-.007-.021-.021-.071-.032-.107l-.022-.069c-.01-.031-.02-.061-.031-.092-.018-.055-.038-.109-.058-.164s-.04-.109-.061-.163c-.042-.11-.087-.219-.132-.328-.178-.424-.377-.842-.561-1.256a6.916,6.916,0,0,1-.262-.665l-.023.033a1.433,1.433,0,0,0-.1.177,4.376,4.376,0,0,1-.966,2.144l-.972-1.415-.85,1.307a1.068,1.068,0,0,0-.341.605c-.027.086-.053.179-.077.278-.017.066-.033.136-.048.206-.009.036-.016.071-.023.108l-.022.112v.017c-.015.076-.029.154-.043.234s-.029.172-.043.259q-.015.084-.026.169c-.017.109-.032.219-.047.328-.009.064-.017.123-.025.19l-.029.245c.063.2.132.4.2.594a.988.988,0,0,1,.08.337,8.372,8.372,0,0,0,4.6,0,.041.041,0,0,1,0-.012,1.46,1.46,0,0,1-.029-.335h0a9.213,9.213,0,0,1,.123-.937,3.435,3.435,0,0,0,.023-.461v-.055C327.775,695.688,327.774,695.644,327.772,695.6Zm0,0a.851.851,0,0,0-.009-.147c-.009-.049-.007-.092-.014-.138s-.011-.093-.017-.14-.015-.093-.023-.14-.017-.093-.027-.14a.208.208,0,0,0-.01-.047c-.013-.061-.028-.123-.044-.185s-.026-.1-.04-.148a.209.209,0,0,0-.02-.065c-.007-.021-.021-.071-.032-.107l-.022-.069c-.01-.031-.02-.061-.031-.092-.018-.055-.038-.109-.058-.164s-.04-.109-.061-.163c-.042-.11-.087-.219-.132-.328-.178-.424-.377-.842-.561-1.256a6.916,6.916,0,0,1-.262-.665l-.023.033a1.433,1.433,0,0,0-.1.177,4.376,4.376,0,0,1-.966,2.144l-.972-1.415-.85,1.307a1.068,1.068,0,0,0-.341.605c-.027.086-.053.179-.077.278-.017.066-.033.136-.048.206-.009.036-.016.071-.023.108l-.022.112v.017c-.015.076-.029.154-.043.234s-.029.172-.043.259q-.015.084-.026.169c-.017.109-.032.219-.047.328-.009.064-.017.123-.025.19l-.029.245c.063.2.132.4.2.594a.988.988,0,0,1,.08.337,8.372,8.372,0,0,0,4.6,0,.041.041,0,0,1,0-.012,1.46,1.46,0,0,1-.029-.335h0a9.213,9.213,0,0,1,.123-.937,3.435,3.435,0,0,0,.023-.461v-.055C327.775,695.688,327.774,695.644,327.772,695.6Zm0,0a.851.851,0,0,0-.009-.147c-.009-.049-.007-.092-.014-.138s-.011-.093-.017-.14-.015-.093-.023-.14-.017-.093-.027-.14a.208.208,0,0,0-.01-.047c-.013-.061-.028-.123-.044-.185s-.026-.1-.04-.148a.209.209,0,0,0-.02-.065c-.007-.021-.021-.071-.032-.107l-.022-.069c-.01-.031-.02-.061-.031-.092-.018-.055-.038-.109-.058-.164s-.04-.109-.061-.163c-.042-.11-.087-.219-.132-.328-.178-.424-.377-.842-.561-1.256a6.916,6.916,0,0,1-.262-.665l-.023.033a1.433,1.433,0,0,0-.1.177,4.376,4.376,0,0,1-.966,2.144l-.972-1.415-.85,1.307a1.068,1.068,0,0,0-.341.605c-.027.086-.053.179-.077.278-.017.066-.033.136-.048.206-.009.036-.016.071-.023.108l-.022.112v.017c-.015.076-.029.154-.043.234s-.029.172-.043.259q-.015.084-.026.169c-.017.109-.032.219-.047.328-.009.064-.017.123-.025.19l-.029.245c.063.2.132.4.2.594a.988.988,0,0,1,.08.337,8.372,8.372,0,0,0,4.6,0,.041.041,0,0,1,0-.012,1.46,1.46,0,0,1-.029-.335h0a9.213,9.213,0,0,1,.123-.937,3.435,3.435,0,0,0,.023-.461v-.055C327.775,695.688,327.774,695.644,327.772,695.6Z" transform="translate(-317.034 -681.193)"/>
      <path id="Path_162" data-name="Path 162" class="cls-7" d="M307.064,692.687l-.082-.011a2.989,2.989,0,0,1-.368-.073l-.045-.012c-.3-.084-.626-.236-.7-.5a.477.477,0,0,1,.007-.261,2.239,2.239,0,0,1,.167-.422V691.4a.586.586,0,0,1,.031-.055,1.226,1.226,0,0,1,.442-.482l-.147.023-1.245.2-1.93.311s-.343-.069-.81,1.218a.2.2,0,0,1-.016.048c-.113.315-.232.708-.354,1.2-.085.341-.162.675-.233,1-.021.1-.042.195-.061.29a7.784,7.784,0,0,0,.712.735l.04.038a8.363,8.363,0,0,0,1.632,1.155l.023.012a8.079,8.079,0,0,0,1.152.51l.1.037c.022-.227.047-.478.076-.735a.21.21,0,0,1,.01-.077l.029-.245c.007-.062.016-.122.025-.19.015-.109.029-.219.047-.328q.011-.085.026-.169c.013-.087.028-.174.043-.259s.028-.158.043-.234v-.017l.022-.112c.007-.037.015-.072.023-.108.015-.07.031-.14.048-.206.025-.1.05-.192.077-.278a1.047,1.047,0,0,1,.341-.605l.85-1.307.036-.055.016-.024Z" transform="translate(-299.73 -681.418)"/>
      <path id="Path_163" data-name="Path 163" class="cls-18" d="M306.377,692.707l-.9,1.387a1.036,1.036,0,0,0-.334.587c-.028.091-.056.19-.083.294a14.678,14.678,0,0,0-.277,1.6.191.191,0,0,1-.01.073c-.042.341-.076.675-.1.97a8.068,8.068,0,0,1-1.152-.51l-.023-.012a8.361,8.361,0,0,1-1.632-1.156l-.04-.038a7.778,7.778,0,0,1-.712-.735c-.029-.033-.058-.067-.086-.1.013-.064.027-.123.042-.191.07-.325.147-.658.232-1a12.069,12.069,0,0,1,.417-1.372.374.374,0,0,1,.016-.039c.434-1.116.746-1.054.746-1.054l2.038-.328,1.287-.208-.04.023a1.3,1.3,0,0,0-.354.377l-.036.06c-.015.023-.028.049-.043.075a2.172,2.172,0,0,0-.169.429.451.451,0,0,0,.029.35,1.167,1.167,0,0,0,.756.439l.048.012A3.047,3.047,0,0,0,306.377,692.707Z" transform="translate(-299.116 -681.435)"/>
      <path id="Path_164" data-name="Path 164" class="cls-7" d="M375.311,692.946l-.05-1.088c.214-1.715-.214-1.822-.214-1.822l-.51-.245h-.013l-2.05-.994-.08-.039-.024-.011h0l-.267-.13h0l-.169-.082-.316-.153-.107-.052v.425c0,.123.011.266.021.433.022.419.063.98.135,1.642.04.384.092.8.156,1.252.038.266.065.531.082.789a13.881,13.881,0,0,1-.081,2.61l.112-.036a8.24,8.24,0,0,0,.887-.355h0a8.146,8.146,0,0,0,1.581-.97l.022-.016a8.188,8.188,0,0,0,.89-.807Z" transform="translate(-360.969 -679.198)"/>
      <path id="Path_165" data-name="Path 165" class="cls-18" d="M376.173,692.9l-.05-1.09c.214-1.715-.214-1.822-.214-1.822l-.613-.3h-.012l-2.056-1-.094-.045-.018-.009-.151-.073-.2-.1-.395-.191v.174h0v.216c0,.122.011.283.022.466.021.391.057.9.122,1.512.044.418.1.882.172,1.382q.056.4.081.793a13.868,13.868,0,0,1-.076,2.573,8.3,8.3,0,0,0,2.468-1.326l.022-.016a8.169,8.169,0,0,0,.89-.807q.054-.054.1-.11Z" transform="translate(-361.723 -679.154)"/>
      <path id="Path_166" data-name="Path 166" class="cls-7" d="M331.754,636.541a3.066,3.066,0,0,1,1.147-.122,3.752,3.752,0,0,1,.876.425,2.269,2.269,0,0,0,.9.239.532.532,0,0,0,.332-.065.515.515,0,0,0,.148-.5,2.9,2.9,0,0,0-.735-1.377,2.69,2.69,0,0,0-.461-.467,2.433,2.433,0,0,0-1.567-.355,3.925,3.925,0,0,0-1.8.461c-.368.211-1.211.875-.918,1.355C329.993,636.632,331.272,636.623,331.754,636.541Z" transform="translate(-324.216 -631.795)"/>
      <path id="Path_167" data-name="Path 167" class="cls-16" d="M331.754,635.541a3.066,3.066,0,0,1,1.147-.122,3.752,3.752,0,0,1,.876.425,2.269,2.269,0,0,0,.9.239.532.532,0,0,0,.332-.065.515.515,0,0,0,.148-.5,2.9,2.9,0,0,0-.735-1.377,2.69,2.69,0,0,0-.461-.467,2.433,2.433,0,0,0-1.567-.355,3.925,3.925,0,0,0-1.8.461c-.368.211-1.211.875-.918,1.355C329.993,635.632,331.272,635.623,331.754,635.541Z" transform="translate(-324.216 -630.918)"/>
    </g>
    <path id="Path_168" data-name="Path 168" class="cls-19" d="M619.443,358.92h.018a3.3,3.3,0,0,0,.368,1.769c.534.49,2.75-.49,2.6-1.083-.031-.123-.082-.323-.147-.577a1.725,1.725,0,0,0,1.312-.6l.385,1.186.027.085h.03c.254,2.4.828,7.4,1.288,8.065.613.886,1.317,4.725,1.317,4.725l1.317,7.875a38.7,38.7,0,0,0,.811,5.024.569.569,0,0,0,.333.173,4.831,4.831,0,0,1-.735,1.5c-.613.689-1.419,2.067-2.128,1.969s-.912,1.378.406,1.575a10.889,10.889,0,0,0,2.785-.163,1,1,0,0,0,.964.951,16.184,16.184,0,0,0,4.053-.393s2.328-.98,2.432-1.674a21.9,21.9,0,0,0-.481-3.577c.368-.589-.025-5.676-.025-5.676l-.709-9.745s.406-5.413,0-6.4a30.35,30.35,0,0,1-.383-5.446l.49.032a.888.888,0,0,0,.076-.107l.123.009a1.628,1.628,0,0,0,.1-1.772c-.376-.8-.305-4.439-.245-6.249h0l.072-.858a.243.243,0,0,0,.06-.093,8.984,8.984,0,0,0,2.736-.828,2.774,2.774,0,0,0,.718-.436c.507-.49.2-3.446-.811-7.875s-1.925-4.036-1.925-4.036-2.432-.2-3.547-1.674-1.864-1.457-1.864-1.457h0c-.028-.194-.048-.376-.061-.546,0-.064-.01-.122-.013-.186a3.241,3.241,0,0,0,.843-1.278,6.337,6.337,0,0,0,.727-.317.863.863,0,0,0,.151-.14,1.239,1.239,0,0,0,.391-.771,3.154,3.154,0,0,0-.045-.967,2.343,2.343,0,0,0-1.546-2.122q-1.608-.844-3.224-1.671a1.78,1.78,0,0,0-.69-.245,1.839,1.839,0,0,0-1.166.551,5.025,5.025,0,0,0-.4.349,2.243,2.243,0,0,0-.293.315,3.02,3.02,0,0,0-.4,2.253.309.309,0,0,0,.327.276,3.16,3.16,0,0,0-.337,1.421,3.223,3.223,0,0,0,1.5,2.707c0,.069,0,.136.006.2a7.188,7.188,0,0,1-.025.754s-2.7,1.457-3,2.146a3.2,3.2,0,0,1-1.419,1.181s-2.128,1.083-2.128,4.922l-1.115,5.413-.2,10.335s.14-.122.368-.3c-.007.069-.014.14-.02.212a11.747,11.747,0,0,0-.031,1.187Zm13.613,26.749c-.042.158-.1.368-.18.613-.034-.2-.069-.4-.1-.6C632.861,385.678,632.955,385.673,633.056,385.669Z" transform="translate(-548.57 -288.017)"/>
    <path id="Path_169" data-name="Path 169" class="cls-20" d="M677.171,808.413a7.475,7.475,0,0,1-.98,2.44c-.589.682-1.361,2.05-2.043,1.952s-.879,1.366.391,1.561a15.137,15.137,0,0,0,3.9-.39s2.245-.98,2.341-1.659a31.137,31.137,0,0,0-.586-4.2Z" transform="translate(-596.366 -712.03)"/>
    <path id="Path_170" data-name="Path 170" class="cls-21" d="M677.171,808.413a7.475,7.475,0,0,1-.98,2.44c-.589.682-1.361,2.05-2.043,1.952s-.879,1.366.391,1.561a15.137,15.137,0,0,0,3.9-.39s2.245-.98,2.341-1.659a31.137,31.137,0,0,0-.586-4.2Z" transform="translate(-596.366 -712.03)"/>
    <path id="Path_171" data-name="Path 171" class="cls-20" d="M706.627,814.774a7.475,7.475,0,0,1-.98,2.439c-.589.682-1.365,2.05-2.045,1.952s-.879,1.366.391,1.561a15.18,15.18,0,0,0,3.9-.391s2.245-.98,2.342-1.659a31.157,31.157,0,0,0-.586-4.2Z" transform="translate(-622.211 -717.611)"/>
    <path id="Path_172" data-name="Path 172" class="cls-22" d="M659.66,598.67s.781,8.392,1.366,9.271,1.268,4.684,1.268,4.684l1.268,7.806a39.845,39.845,0,0,0,.78,4.977c.29.488,3.912.278,3.912.278L666,599.84Z" transform="translate(-584.126 -528.244)"/>
    <path id="Path_173" data-name="Path 173" class="cls-21" d="M659.66,598.67s.781,8.392,1.366,9.271,1.268,4.684,1.268,4.684l1.268,7.806a39.845,39.845,0,0,0,.78,4.977c.29.488,3.912.278,3.912.278L666,599.84Z" transform="translate(-584.126 -528.244)"/>
    <path id="Path_174" data-name="Path 174" class="cls-22" d="M646.92,566l.255.81,1.379,4.375.027.083h.007c.185.042,4.091.94,4.934,1.216a1.2,1.2,0,0,1,.134.05c.391.195.878,7.221.878,7.221s.293,6.636.49,7.124.98,10.537,1.464,10.246,4,0,4,0c.391-.391,0-5.66,0-5.66l-.693-9.659s.391-5.367,0-6.343-.391-7.514-.391-7.514l-7.988-1.249-.772-.122Z" transform="translate(-572.947 -499.577)"/>
    <path id="Path_175" data-name="Path 175" class="cls-23" d="M649,570.646l1.379,4.376.033.086c.185.042,4.091.94,4.934,1.215h.085l-2.182-5.786-.063-.167-.709.045Z" transform="translate(-574.772 -503.412)"/>
    <path id="Path_176" data-name="Path 176" class="cls-7" d="M659.781,406.73s-3.611,3.9-5.856.682l-2.147,1.464.391,2.245L650.9,428.1a19.8,19.8,0,0,1,5.66.682,3.632,3.632,0,0,0,3.806-.879l-.386-14.929.879-4.586Z" transform="translate(-576.439 -359.822)"/>
    <path id="Path_177" data-name="Path 177" class="cls-20" d="M659.781,404.34s-3.611,3.9-5.856.682l-2.147,1.464.391,2.245L650.9,425.71a19.8,19.8,0,0,1,5.66.682,3.632,3.632,0,0,0,3.806-.879l-.386-14.929.879-4.586Z" transform="translate(-576.439 -357.725)"/>
    <g id="TESLA" transform="translate(74.995 63.597)">
      <g id="g8">
        <path id="polyline10" class="cls-24" d="M613.4,522.36v.615h-.2v-.409h-.717v.409h-.2v-.614h1.11" transform="translate(-612.262 -521.958)"/>
        <path id="path12" class="cls-24" d="M656.223,543.143h-.757a.28.28,0,0,1-.206-.2h1.168a.281.281,0,0,1-.206.2" transform="translate(-655.26 -542.94)"/>
      </g>
      <g id="g30" transform="translate(6.533 0.007)">
        <path id="path32" class="cls-24" d="M709.857,543a.283.283,0,0,1-.2.2h-.319l-.016.006v.8h-.2v-.8l-.018-.006h-.318a.286.286,0,0,1-.2-.2h1.277" transform="translate(-708.58 -543)"/>
      </g>
    </g>
    <path id="Path_178" data-name="Path 178" class="cls-25" d="M629.206,569.2a10.451,10.451,0,0,1-.586,3.611c-.586,1.073-4,.49-4,.49l.682-3.611Z" transform="translate(-553.379 -502.385)"/>
    <path id="Path_179" data-name="Path 179" class="cls-26" d="M625.079,584.307c.515.49,2.648-.49,2.5-1.073-.1-.413-.463-1.891-.668-2.729l-.142-.589s-1.25-.391-1.691,0a2.782,2.782,0,0,0-.326,1.378C624.663,582.469,624.755,584,625.079,584.307Z" transform="translate(-553.467 -511.635)"/>
    <path id="Path_180" data-name="Path 180" class="cls-26" d="M666,371.234l3.415,2.634s5.074-.293,3.806-2.732a9.1,9.1,0,0,1-.98-3.448,7.208,7.208,0,0,1,0-1.334s-4.684-4.289-4.1.586a11.018,11.018,0,0,1,.081,1.127C668.293,371.725,666,371.234,666,371.234Z" transform="translate(-589.689 -322.863)"/>
    <path id="Path_181" data-name="Path 181" class="cls-7" d="M683.2,366.933a11.015,11.015,0,0,1,.081,1.127,3.2,3.2,0,0,0,1.773.532c.874,0,1.517-.85,2.1-1.415-.065-.81.146-.83.146-.83S682.611,362.054,683.2,366.933Z" transform="translate(-604.734 -322.856)"/>
    <circle id="Ellipse_26" data-name="Ellipse 26" class="cls-26" cx="3.22" cy="3.22" r="3.22" transform="translate(77.097 39.101)"/>
    <path id="Path_182" data-name="Path 182" class="cls-7" d="M698.608,394.38s.537.049,1.61,1.512a5.3,5.3,0,0,0,3.415,1.659s.879-.391,1.854,4,1.268,7.319.781,7.806a7.1,7.1,0,0,1-3.42,1.173s-.293,6.147.195,7.221a1.664,1.664,0,0,1-.1,1.757l-4.289-.293a10.206,10.206,0,0,1-1.757-5.074c-.293-3.22-1.268-12.394-.781-13.467s2.634-3.806,2.537-4.1A17.645,17.645,0,0,1,698.608,394.38Z" transform="translate(-615.999 -348.986)"/>
    <path id="Path_183" data-name="Path 183" class="cls-25" d="M700.033,394.14s.722-.02,1.8,1.445a5.287,5.287,0,0,0,3.414,1.659s.879-.391,1.854,4,1.268,7.319.781,7.806a7.1,7.1,0,0,1-3.415,1.171s-.293,6.147.195,7.221a1.664,1.664,0,0,1-.1,1.757l-4.289-.293a10.206,10.206,0,0,1-1.757-5.074c-.293-3.22-1.271-12.393-.783-13.461s2.634-3.806,2.537-4.1S700.033,394.14,700.033,394.14Z" transform="translate(-617.413 -348.775)"/>
    <path id="Path_184" data-name="Path 184" class="cls-7" d="M625,581.284a3.2,3.2,0,0,1,2.159-.789l-.142-.589s-1.25-.391-1.691,0A2.739,2.739,0,0,0,625,581.284Z" transform="translate(-553.712 -511.627)"/>
    <path id="Path_185" data-name="Path 185" class="cls-7" d="M631.94,399.16s-2.489,1.61-2.781,2.294a3.1,3.1,0,0,1-1.366,1.171s-2.049,1.073-2.049,4.879l-1.073,5.367,4.879,6.831s.586-6.831.879-8.49.682-4.779.682-4.779,1.464-1.854,1.268-2.342S631.94,399.16,631.94,399.16Z" transform="translate(-553.423 -353.18)"/>
    <path id="Path_186" data-name="Path 186" class="cls-25" d="M629.79,398.92s-2.6,1.445-2.887,2.127a3.106,3.106,0,0,1-1.366,1.171s-2.049,1.073-2.049,4.879l-1.073,5.367-.195,10.246s1.757-1.659,3.025-.879,2.049-2.538,2.049-2.538.586-6.831.878-8.49.683-4.779.683-4.779,1.464-1.854,1.268-2.342A46.77,46.77,0,0,1,629.79,398.92Z" transform="translate(-551.273 -352.969)"/>
    <path id="Path_187" data-name="Path 187" class="cls-7" d="M672.39,329.387a3.19,3.19,0,0,1,.568-.561,1.742,1.742,0,0,1,1.124-.546,1.683,1.683,0,0,1,.664.238q1.556.82,3.1,1.657a2.885,2.885,0,0,1,1.04.794,3.061,3.061,0,0,1,.448,1.311,3.219,3.219,0,0,1,.044.958,1.2,1.2,0,0,1-.424.8c-.278.2-.659.2-.892.468a2.609,2.609,0,0,0-.289.554c-.1.186-.261.368-.45.334a.472.472,0,0,1-.33-.435,2.642,2.642,0,0,1,.036-.613,1.45,1.45,0,0,0-.223-1.03c-.147-.186-.358-.3-.5-.49-.341-.461-.185-1.225-.559-1.658a.886.886,0,0,0-.858-.245,3.665,3.665,0,0,0-.858.368,6.375,6.375,0,0,1-1.175.453c-.341.093-.735.316-.852-.137A3.021,3.021,0,0,1,672.39,329.387Z" transform="translate(-594.9 -290.983)"/>
    <path id="Path_188" data-name="Path 188" class="cls-27" d="M673.186,328.6a3.184,3.184,0,0,1,.568-.561,1.742,1.742,0,0,1,1.124-.547,1.681,1.681,0,0,1,.664.238c1.037.546,1.9.029,3.1,1.657.257.348.774.424,1.04.794a3.061,3.061,0,0,1,.448,1.311,3.211,3.211,0,0,1,.044.958,1.2,1.2,0,0,1-.424.805c-.278.2-.659.2-.892.468a2.6,2.6,0,0,0-.289.554c-.1.186-.261.368-.45.335a.472.472,0,0,1-.33-.435,2.641,2.641,0,0,1,.036-.613,1.451,1.451,0,0,0-.223-1.03c-.147-.186-.358-.3-.5-.49-.341-.461-.185-1.225-.559-1.658a.886.886,0,0,0-.858-.245,3.664,3.664,0,0,0-.858.368,6.372,6.372,0,0,1-1.175.453c-.341.093-.735.316-.852-.137A3.013,3.013,0,0,1,673.186,328.6Z" transform="translate(-595.598 -290.29)"/>
    <path id="Path_189" data-name="Path 189" class="cls-7" d="M735.152,458.09s1.3,3.318.325,4.684l-2.147-.49s1.952.586,1.659-.586A11.934,11.934,0,0,1,735.152,458.09Z" transform="translate(-648.769 -404.889)"/>
    <path id="Path_190" data-name="Path 190" class="cls-7" d="M728.141,522.2s-2.83.195-3.611-.391a7.473,7.473,0,0,0,3.523,1.464Z" transform="translate(-641.047 -460.802)"/>
    <path id="Path_191" data-name="Path 191" class="cls-7" d="M644.672,474s-1.464,4.49-1.366,5.172.293,8.2.293,8.2l.293-.1-.1-8.2Z" transform="translate(-569.771 -418.85)"/>
    <path id="Path_192" data-name="Path 192" class="cls-28" d="M264.216,111.59,230.765,84.634a2.093,2.093,0,0,0-1.483-.613h-1.421a18.134,18.134,0,1,0-3.14,3.14v1.42a2.093,2.093,0,0,0,.613,1.483l33.451,26.956a2.083,2.083,0,0,0,2.958,0l2.465-2.463A2.1,2.1,0,0,0,264.216,111.59ZM213.554,84.021a11.157,11.157,0,1,1,7.9-3.267,11.167,11.167,0,0,1-7.9,3.267Z" transform="translate(-176.778 -50.953)"/>
    <path id="Path_193" data-name="Path 193" class="cls-4" d="M266.216,109.59,232.765,82.634a2.093,2.093,0,0,0-1.483-.613h-1.421a18.134,18.134,0,1,0-3.14,3.14v1.42a2.093,2.093,0,0,0,.613,1.483l33.451,26.956a2.083,2.083,0,0,0,2.958,0l2.465-2.463A2.1,2.1,0,0,0,266.216,109.59ZM215.554,82.021a11.157,11.157,0,1,1,7.9-3.267,11.167,11.167,0,0,1-7.9,3.267Z" transform="translate(-178.533 -49.198)"/>
    <path id="Path_194" data-name="Path 194" class="cls-26" d="M707.983,474.491s-4.883-5.6-4.2-1.757a5.886,5.886,0,0,0,3.22,4.49C707.885,477.516,707.983,474.491,707.983,474.491Z" transform="translate(-622.787 -416.556)"/>
    <path id="Path_195" data-name="Path 195" class="cls-25" d="M725.01,454.51s.1,3.611.586,4.1-.293,1.073-.293,1.073l-1.952-.49s.49,3.22-1.561,2.83a6.22,6.22,0,0,0,2.732,1.464c1.366.2,1.268-.293,1.268-.293l2.049-2.44Z" transform="translate(-638.643 -401.748)"/>
    <path id="Path_196" data-name="Path 196" class="cls-25" d="M701.383,488.788l1.98-.435-.265-.913-1.225-.49-1.593.735Z" transform="translate(-614.475 -427.289)"/>
    <path id="Path_197" data-name="Path 197" class="cls-10" d="M280.78,140.144a8.293,8.293,0,0,0,1.664,5c.109.146.223.287.342.425.064.075.13.148.2.221q.05.056.1.11a8.176,8.176,0,0,0,.89.807l.022.016a8.3,8.3,0,0,0,2.468,1.326l.111.036c.069.023.14.044.21.064l.028.009c.036.01.071.021.108.029a8.3,8.3,0,0,0,2.185.29c.122,0,.251,0,.376-.009a8.237,8.237,0,0,0,1.932-.316h.012c.116-.034.232-.07.346-.109h.012l.1-.037a8.076,8.076,0,0,0,1.152-.51l.023-.012.122-.067a8.308,8.308,0,0,0,1.512-1.088l.04-.038a7.778,7.778,0,0,0,.712-.735l.026-.031c.021-.023.04-.047.06-.071.054-.064.105-.13.157-.2a8.332,8.332,0,1,0-14.914-5.111Z" transform="translate(-251.669 -118.591)"/>
    <path id="Path_198" data-name="Path 198" class="cls-29" d="M295.632,156.141a4.052,4.052,0,0,0,2.636-1.3c.807-1.119,1.356-1.132,1.383-1.132h0c.021-.149.036-.292.045-.424v-.018a.246.246,0,0,1-.114.05c-.162.025-.3-.129-.385-.292a2.277,2.277,0,0,0-.245-.483c-.2-.23-.527-.232-.765-.407a1.051,1.051,0,0,1-.368-.7,1.932,1.932,0,0,1-.015-.306,3.389,3.389,0,0,1,.051-.653,2.69,2.69,0,0,1,.385-1.141c.227-.32.67-.388.891-.691,1.033-1.416,1.769-.967,2.658-1.442a1.424,1.424,0,0,1,.569-.207,1.487,1.487,0,0,1,.962.477,2.746,2.746,0,0,1,.49.49,2.659,2.659,0,0,1,.387,1.488,2.228,2.228,0,0,1-.056.582c-.071.282-.263.263-.474.2a2.546,2.546,0,0,1-.865,3.2v.129a.207.207,0,0,0,0,.028,5.79,5.79,0,0,0,.02.586c.021.011,2,1.135,2.226,1.668a2.42,2.42,0,0,0,1.055.919,3.3,3.3,0,0,1,1.348,2.029l-.026.031a7.851,7.851,0,0,1-.712.75l-.04.039a8.316,8.316,0,0,1-1.512,1.1c-.039.023-.08.047-.123.069l-.023.012a8.015,8.015,0,0,1-1.152.518l-.1.038h-.012c-.114.04-.229.076-.346.11h-.012a8.113,8.113,0,0,1-1.932.321c-.122.006-.245.009-.376.009a8.166,8.166,0,0,1-2.179-.283c-.037-.009-.072-.02-.108-.029l-.028-.009c-.07-.02-.141-.042-.209-.065l-.112-.036a8.26,8.26,0,0,1-2.471-1.349l-.022-.016a8.218,8.218,0,0,1-.89-.821q-.053-.054-.1-.113c-.067-.074-.134-.148-.2-.224-.123-.141-.233-.284-.342-.433C295.076,155.888,295.632,156.141,295.632,156.141Z" transform="translate(-263.638 -131.908)"/>
    <path id="Path_199" data-name="Path 199" class="cls-26" d="M333.173,187.241l2.636-2.033s-1.766.379-1.715-2.443a.217.217,0,0,1,0-.028,7.224,7.224,0,0,1,.061-.842c.452-3.765-3.162-.452-3.162-.452a5.39,5.39,0,0,1,0,1v.027a7,7,0,0,1-.752,2.66C329.258,187.014,333.173,187.241,333.173,187.241Z" transform="translate(-294.93 -160.957)"/>
    <path id="Path_200" data-name="Path 200" class="cls-7" d="M337.829,181.922c.447.435.721,1.225,1.393,1.225a2.469,2.469,0,0,0,1.369-.41,7.21,7.21,0,0,1,.061-.842c.452-3.765-3.163-.452-3.163-.452S337.877,181.309,337.829,181.922Z" transform="translate(-301.431 -160.957)"/>
    <circle id="Ellipse_27" data-name="Ellipse 27" class="cls-26" cx="2.485" cy="2.485" r="2.485" transform="translate(35.307 17.098)"/>
    <path id="Path_201" data-name="Path 201" class="cls-7" d="M328.066,150.949a2.726,2.726,0,0,0-.49-.48,1.486,1.486,0,0,0-.962-.468,1.44,1.44,0,0,0-.569.2c-.888.468-1.625.026-2.658,1.418-.221.3-.663.368-.891.68a2.607,2.607,0,0,0-.385,1.122,2.753,2.753,0,0,0-.038.821,1.028,1.028,0,0,0,.368.689c.238.173.565.174.765.4a2.22,2.22,0,0,1,.245.474c.081.159.223.31.385.287a.4.4,0,0,0,.282-.368,2.256,2.256,0,0,0-.031-.523,1.252,1.252,0,0,1,.191-.882c.122-.161.306-.256.428-.419.292-.393.159-1.054.479-1.419a.758.758,0,0,1,.735-.2,3.132,3.132,0,0,1,.735.316,5.456,5.456,0,0,0,1.006.388c.292.08.63.271.729-.123A2.59,2.59,0,0,0,328.066,150.949Z" transform="translate(-287.891 -134.548)"/>
    <path id="Path_202" data-name="Path 202" class="cls-27" d="M328.066,149.949a2.727,2.727,0,0,0-.49-.48,1.486,1.486,0,0,0-.962-.468,1.44,1.44,0,0,0-.569.2c-.888.468-1.625.026-2.658,1.418-.221.3-.663.368-.891.68a2.607,2.607,0,0,0-.385,1.122,2.753,2.753,0,0,0-.038.821,1.028,1.028,0,0,0,.368.689c.238.173.565.174.765.4a2.22,2.22,0,0,1,.245.474c.081.159.223.31.385.287a.4.4,0,0,0,.282-.368,2.256,2.256,0,0,0-.031-.523,1.252,1.252,0,0,1,.191-.882c.122-.161.306-.256.428-.419.292-.393.159-1.054.479-1.419a.758.758,0,0,1,.735-.2,3.132,3.132,0,0,1,.735.316,5.458,5.458,0,0,0,1.006.388c.292.08.63.271.729-.122A2.59,2.59,0,0,0,328.066,149.949Z" transform="translate(-287.891 -133.671)"/>
    <path id="Path_203" data-name="Path 203" class="cls-7" d="M326.524,214.578l-.049,1.881a8.3,8.3,0,0,0,2.185.29c.122,0,.251,0,.376-.009a8.24,8.24,0,0,0,1.932-.316h.012c.116-.034.232-.07.346-.109h.012l.1-.037a8.079,8.079,0,0,0,1.152-.51l.023-.012.123-.067-.19-2.535.3-1.739-1.657-1.129a2.921,2.921,0,0,1-.311.377,2.083,2.083,0,0,1-.566.419c-1.189.586-2.541-.345-3.214-.921l-.153-.136c-.174-.158-.273-.266-.273-.266l-.828,1.279Z" transform="translate(-291.217 -186.987)"/>
    <path id="Path_204" data-name="Path 204" class="cls-20" d="M326.524,215.578l-.049,1.881a8.3,8.3,0,0,0,2.185.29c.122,0,.251,0,.376-.009a8.24,8.24,0,0,0,1.932-.316h.012c.116-.034.232-.07.346-.109h.012l.1-.037a8.079,8.079,0,0,0,1.152-.51l.023-.012.123-.067-.19-2.535.3-1.739-1.657-1.129a2.921,2.921,0,0,1-.311.377,2.083,2.083,0,0,1-.566.419c-1.189.586-2.541-.345-3.214-.921l-.153-.136c-.174-.158-.273-.266-.273-.266l-.828,1.279Z" transform="translate(-291.217 -187.864)"/>
    <path id="Path_205" data-name="Path 205" class="cls-30" d="M294.36,207.491c.109.146.223.287.342.425.064.075.13.148.2.221q.05.056.1.11a8.18,8.18,0,0,0,.89.807l.022.016a8.3,8.3,0,0,0,2.468,1.326l.111.036c.069.023.14.044.21.064l.028.009c.036.01.071.021.108.029a8.3,8.3,0,0,0,2.185.29c.123,0,.251,0,.376-.009a11.79,11.79,0,0,0-.027-3.14,5.062,5.062,0,0,0-.3-.542,21.237,21.237,0,0,1-1.655-2.621,1.921,1.921,0,0,0,.05-.276c.065-.483.13-1.366.13-1.366h0c-.027,0-.576.013-1.383,1.114a4.084,4.084,0,0,1-2.636,1.28S295.023,205.019,294.36,207.491Z" transform="translate(-263.586 -180.941)"/>
    <path id="Path_206" data-name="Path 206" class="cls-30" d="M361.757,212.1s.091.722.21,1.584h.012l.1-.037a8.076,8.076,0,0,0,1.152-.51l.023-.012.123-.067a8.31,8.31,0,0,0,1.512-1.088l.04-.038a7.785,7.785,0,0,0,.712-.735l.026-.031a3.241,3.241,0,0,0-1.348-2,2.407,2.407,0,0,1-1.055-.9c-.227-.527-2.228-1.641-2.228-1.641v.009c0,.094-.032.958-.08,1.827-.031.565-.069,1.132-.113,1.492a1.745,1.745,0,0,1-.064.346C360.629,210.675,361.757,212.1,361.757,212.1Z" transform="translate(-321.858 -184.24)"/>
  </g>
</svg>
