<svg xmlns="http://www.w3.org/2000/svg" width="111" height="111.927" viewBox="0 0 111 111.927">
  <defs>
    <style>
      .cls-1 {
        fill: #e6e6e6;
      }

      .cls-2 {
        fill: #3f3d56;
      }

      .cls-3 {
        fill: #fff;
      }

      .cls-4 {
        fill: #ccc;
      }

      .cls-5, .cls-6 {
        fill: #6c63ff;
      }

      .cls-5 {
        opacity: 0.2;
      }

      .cls-7 {
        fill: #2f2e41;
      }

      .cls-8 {
        fill: #ffb8b8;
      }
    </style>
  </defs>
  <g id="Verrified_accomodation" data-name="Verrified accomodation" transform="translate(-228 -105)">
    <ellipse id="Ellipse_92" data-name="Ellipse 92" class="cls-1" cx="55.5" cy="3.26" rx="55.5" ry="3.26" transform="translate(228 210.408)"/>
    <path id="Path_607" data-name="Path 607" class="cls-2" d="M335.755,130.479h-.6V114.122a9.467,9.467,0,0,0-9.467-9.467H291.038a9.467,9.467,0,0,0-9.467,9.467v89.734a9.467,9.467,0,0,0,9.467,9.467h34.654a9.467,9.467,0,0,0,9.467-9.467V142.122h.6Z" transform="translate(-44.839 0.345)"/>
    <path id="Path_608" data-name="Path 608" class="cls-3" d="M346.56,126.836v89.6a7.07,7.07,0,0,1-7.07,7.07H304.67a7.07,7.07,0,0,1-7.07-7.069v-89.6a7.07,7.07,0,0,1,7.07-7.07h4.224a3.361,3.361,0,0,0,3.11,4.627h19.853a3.36,3.36,0,0,0,3.11-4.627h4.522a7.07,7.07,0,0,1,7.07,7.07Z" transform="translate(-58.256 -12.303)"/>
    <path id="Path_609" data-name="Path 609" class="cls-1" d="M208.525,401.241h-.732l.244-14.3h.245Z" transform="translate(46.905 -218.868)"/>
    <path id="Path_610" data-name="Path 610" class="cls-4" d="M376.217,401.249l1.182-1.827a27.407,27.407,0,0,0-1.213-2.839l-.764.617.605-.935c-.577-1.135-1.031-1.851-1.031-1.851a26.253,26.253,0,0,0-3.163,7.691l1.517,2.344-1.679-1.356a11.073,11.073,0,0,0-.092,1.389c0,4.684,1.53,8.482,3.417,8.482s3.417-3.8,3.417-8.482a14.573,14.573,0,0,0-.782-4.377Z" transform="translate(-120.177 -242.185)"/>
    <path id="Path_611" data-name="Path 611" class="cls-1" d="M325.484,401.241h-.732l.244-14.3h.245Z" transform="translate(-50.991 -218.868)"/>
    <path id="Path_612" data-name="Path 612" class="cls-4" d="M493.173,401.249l1.182-1.827a27.394,27.394,0,0,0-1.213-2.839l-.764.617.605-.935c-.577-1.135-1.031-1.851-1.031-1.851a26.237,26.237,0,0,0-3.162,7.691l1.516,2.344-1.679-1.356a11.087,11.087,0,0,0-.092,1.389c0,4.684,1.53,8.482,3.417,8.482s3.417-3.8,3.417-8.482a14.57,14.57,0,0,0-.782-4.377Z" transform="translate(-218.069 -242.185)"/>
    <circle id="Ellipse_94" data-name="Ellipse 94" class="cls-1" cx="6.728" cy="6.728" r="6.728" transform="translate(248.144 121.501)"/>
    <path id="Path_613" data-name="Path 613" class="cls-1" d="M258.29,310.464h-1.51l.5-29.493h.5Z" transform="translate(5.902 -130.174)"/>
    <path id="Path_614" data-name="Path 614" class="cls-4" d="M408.656,199.346l2.437-3.766a56.457,56.457,0,0,0-2.5-5.853L407.016,191l1.248-1.929c-1.19-2.341-2.125-3.816-2.125-3.816s-4.888,7.7-6.521,15.858l3.127,4.834-3.462-2.8a22.848,22.848,0,0,0-.19,2.865c0,9.659,3.154,17.488,7.046,17.488s7.046-7.83,7.046-17.488a30.078,30.078,0,0,0-1.612-9.025Z" transform="translate(-143.206 -67.118)"/>
    <path id="Path_615" data-name="Path 615" class="cls-1" d="M340.326,540.1v20.05a7.221,7.221,0,0,1-7.07,7.363h-34.82a7.221,7.221,0,0,1-7.07-7.363v-18.1a32.408,32.408,0,0,1,48.96-1.955Z" transform="translate(-52.022 -355.557)"/>
    <circle id="Ellipse_95" data-name="Ellipse 95" class="cls-5" cx="10.303" cy="10.303" r="10.303" transform="translate(253.56 183.714)"/>
    <circle id="Ellipse_96" data-name="Ellipse 96" class="cls-6" cx="8.296" cy="8.296" r="8.296" transform="translate(255.567 185.721)"/>
    <path id="Path_616" data-name="Path 616" class="cls-3" d="M243.071,525.589l-2.924-3.759,1.7-1.322,1.384,1.78,4.676-4.936,1.564,1.481Z" transform="translate(19.824 -328.025)"/>
    <g id="Group_24" data-name="Group 24" transform="translate(289.345 165.599)">
      <circle id="Ellipse_97" data-name="Ellipse 97" class="cls-7" cx="5.379" cy="5.379" r="5.379" transform="translate(13.223 4.758)"/>
      <path id="Path_624" data-name="Path 624" class="cls-8" d="M553.859,375.018l.414,1.955,7.737-.668-.611-2.885Z" transform="translate(-533.078 -334.685)"/>
      <path id="Path_625" data-name="Path 625" class="cls-7" d="M0,0H6.28V2.427H2.427A2.427,2.427,0,0,1,0,0Z" transform="matrix(-0.207, -0.978, 0.978, -0.207, 20.179, 46.443)"/>
      <path id="Path_626" data-name="Path 626" class="cls-8" d="M481.9,365.338l-.871,1.8-7.351-2.5,1.285-2.654Z" transform="translate(-465.965 -325.11)"/>
      <path id="Path_627" data-name="Path 627" class="cls-7" d="M2.426,0H6.28V2.427H0A2.427,2.427,0,0,1,2.426,0Z" transform="translate(12.872 45.248) rotate(-64.164)"/>
      <path id="Path_628" data-name="Path 628" class="cls-8" d="M682.812,508.275a1.751,1.751,0,0,0,2.072-1.708l12.123-11.177L694,493.058,683.02,504.784a1.76,1.76,0,0,0-.208,3.49Z" transform="translate(-681.361 -471.599)"/>
      <circle id="Ellipse_98" data-name="Ellipse 98" class="cls-8" cx="4.003" cy="4.003" r="4.003" transform="translate(13.923 7.752)"/>
      <path id="Path_629" data-name="Path 629" class="cls-6" d="M749.392,474.429c-2.808,0-6.19-.591-8.277-3.012l-.047-.054.049-.053c.016-.017,1.551-1.772.018-4.9l-2.108.648-2.1-2.769,1.162-3.486,4.756-3.83a4.359,4.359,0,0,1,2.381-.944,13.075,13.075,0,0,0,4.529-1.29,4.549,4.549,0,0,1,2.086-.456l.094,0a1.622,1.622,0,0,1,1.571,1.745c-.323,4.178-.892,14.269.781,17.744l.043.09-.1.024a22.182,22.182,0,0,1-4.845.541Z" transform="translate(-727.872 -439.142)"/>
      <path id="Path_630" data-name="Path 630" class="cls-7" d="M703.536,558.337s-10.595-.978-11.736,2.119.163,4.564,2.119,5.216a68.167,68.167,0,0,0,6.683,1.467l2.119-2.608,5.542.326s6.175,3.582,7.883,7.412a5.014,5.014,0,0,0,4.2,2.972c1.369.1,2.586-.422,2.586-2.561,0-4.89-6.846-11.9-6.846-11.9Z" transform="translate(-689.742 -526.115)"/>
      <path id="Path_631" data-name="Path 631" class="cls-7" d="M716.486,587.8s2.771-.815,7.172,1.3" transform="translate(-710.761 -550.768)"/>
      <path id="Path_632" data-name="Path 632" class="cls-7" d="M766.843,406.148a11.9,11.9,0,0,0,5.151,1.7l-.543-.651a3.987,3.987,0,0,0,1.232.245,1.35,1.35,0,0,0,1.1-.515,1.255,1.255,0,0,0,.084-1.16,2.378,2.378,0,0,0-.748-.935,4.454,4.454,0,0,0-4.145-.741,2.662,2.662,0,0,0-1.239.794,1.506,1.506,0,0,0-.3,1.4" transform="translate(-752.91 -396.947)"/>
      <path id="Path_633" data-name="Path 633" class="cls-7" d="M795.309,367.4a12.3,12.3,0,0,1,3.119-4.323,6.3,6.3,0,0,1,3.007-1.624,3.232,3.232,0,0,1,3.115,1.061,4,4,0,0,1,.614,2.7c-.063.941-.273,1.874-.253,2.817a5.781,5.781,0,0,0,8.236,5.11,28.718,28.718,0,0,0-2.657,2.055,3.377,3.377,0,0,1-3.148.67c-1.095-.456-1.6-1.7-1.99-2.818l-1.749-4.994a6.717,6.717,0,0,0-1.216-2.387,2.29,2.29,0,0,0-2.427-.735,3.272,3.272,0,0,0-1.407,1.434,3.749,3.749,0,0,1-1.353,1.5,1.233,1.233,0,0,1-1.715-.535" transform="translate(-776.736 -361.401)"/>
      <path id="Path_636" data-name="Path 636" class="cls-8" d="M794.5,513.351a1.884,1.884,0,0,1-.207-.011,1.793,1.793,0,0,1,.2-3.575,1.741,1.741,0,0,1,.239.018l5.473-5.826-.571-1.9,2.869-1.286.8,1.966a3.34,3.34,0,0,1-1.006,3.859l-6.024,4.792a1.659,1.659,0,0,1,.01.176,1.8,1.8,0,0,1-.6,1.337,1.772,1.772,0,0,1-1.193.456Z" transform="translate(-774.551 -478.049)"/>
      <path id="Path_637" data-name="Path 637" class="cls-6" d="M829.986,458.408h0a1.541,1.541,0,0,1,2.058.84l2.832,7.146-4.4,2.934Z" transform="translate(-805.761 -442.485)"/>
    </g>
  </g>
</svg>
